<svg width="39" height="32" viewBox="0 0 39 32" fill="none" xmlns="http://www.w3.org/2000/svg">
<path d="M22.3715 7.28803L22.2703 6.92085H21.8894H19.8964C19.787 6.92085 19.6852 6.87863 19.6127 6.8085C19.5407 6.73893 19.5035 6.64819 19.5035 6.55723C19.5035 6.46627 19.5407 6.37553 19.6127 6.30595C19.6852 6.23583 19.787 6.1936 19.8964 6.1936L22.5752 6.1936L22.5754 6.1936C22.666 6.19357 22.7523 6.22253 22.8209 6.27339C22.8891 6.3239 22.9352 6.39233 22.9559 6.46612C22.956 6.46634 22.956 6.46656 22.9561 6.46678L25.1648 14.4851L25.2757 14.8877L25.6916 14.8503C26.9092 14.7409 28.123 15.0782 29.0921 15.7922C30.0608 16.5057 30.7131 17.5421 30.9252 18.6935C31.1372 19.8445 30.8949 21.0318 30.2434 22.0209C29.5915 23.0106 28.5761 23.7313 27.3953 24.0352C26.2142 24.3391 24.9585 24.2024 23.8781 23.6538C22.7982 23.1053 21.9752 22.1868 21.5672 21.0845C21.1595 19.9826 21.1945 18.7734 21.6657 17.6949C22.1372 16.6159 23.0127 15.7431 24.1233 15.2538L24.5187 15.0796L24.4037 14.6631L23.9251 12.9306L23.685 12.0618L23.075 12.7254L16.8353 19.5135L16.7165 19.6427L16.7046 19.8178C16.6405 20.7556 16.2849 21.6547 15.6819 22.3969C15.0787 23.1393 14.2556 23.6904 13.319 23.9752C12.3823 24.26 11.378 24.2645 10.4386 23.9879C9.49932 23.7114 8.67097 23.1675 8.06069 22.4304C7.45058 21.6935 7.0865 20.7975 7.0136 19.8604C6.9407 18.9232 7.1621 17.9856 7.65053 17.1701C8.13911 16.3542 8.87285 15.6976 9.75782 15.2887C10.6429 14.8797 11.6363 14.7386 12.6072 14.8847L13.0184 14.9467L13.1542 14.5536L14.1597 11.6432L14.2144 11.4848L14.1626 11.3254C14.1515 11.2913 14.146 11.2561 14.146 11.2209V11.2208V9.1481V8.6481H13.646H10.9672C10.8578 8.6481 10.756 8.60588 10.6835 8.53575C10.6115 8.46618 10.5743 8.37543 10.5743 8.28448C10.5743 8.19352 10.6115 8.10278 10.6835 8.0332C10.756 7.96308 10.8578 7.92085 10.9672 7.92085H14.5389C14.6484 7.92085 14.7502 7.96308 14.8227 8.0332C14.8946 8.10278 14.9318 8.19352 14.9318 8.28448V10.8754V11.3754H15.4318H22.8413H23.4977L23.3233 10.7425L22.3715 7.28803ZM11.8602 15.5571H11.86C11.1019 15.5573 10.358 15.763 9.71258 16.1524C9.06701 16.5418 8.54496 17.1 8.20782 17.7654C7.8706 18.4309 7.73259 19.1758 7.81063 19.915C7.88866 20.6541 8.17931 21.3556 8.64746 21.94C9.11548 22.5242 9.74181 22.9678 10.454 23.2225C11.166 23.4772 11.9369 23.5334 12.6798 23.3854C13.4227 23.2373 14.1097 22.8903 14.6621 22.3818C15.2146 21.8731 15.6105 21.223 15.8024 20.5042L15.9703 19.8752H15.3193H11.8605C11.7955 19.8752 11.7321 19.8602 11.6756 19.8322C11.6193 19.8042 11.5722 19.7646 11.5373 19.7177L11.1363 20.0164L11.5373 19.7177C11.5025 19.671 11.4806 19.6182 11.472 19.5639C11.4635 19.5097 11.4683 19.4542 11.4864 19.4015C11.4864 19.4015 11.4864 19.4015 11.4864 19.4015L12.5793 16.2286L12.7916 15.6125L12.1416 15.567C12.0478 15.5604 11.954 15.5571 11.8602 15.5571ZM12.6268 18.4852L12.3985 19.148H13.0995H15.3193H15.9703L15.8024 18.5191C15.5416 17.5418 14.9107 16.7171 14.0677 16.1866L13.5339 15.8508L13.3286 16.447L12.6268 18.4852ZM13.9054 14.7733L13.7645 15.1826L14.1494 15.3807C15.1782 15.9103 15.9722 16.7773 16.3912 17.8204L16.6867 18.5562L17.2233 17.9725L21.8486 12.941L22.6193 12.1026H21.4805H15.1818H14.8252L14.7091 12.4398L13.9054 14.7733ZM24.7078 15.7606L24.1542 16.0618C23.2929 16.5306 22.6335 17.2891 22.3038 18.1991C21.974 19.1095 21.9985 20.1055 22.3722 20.9995C22.7457 21.893 23.4411 22.62 24.3238 23.0487C25.2062 23.4771 26.2182 23.5796 27.1717 23.3383C28.1254 23.0969 28.9596 22.5267 29.5155 21.7299C30.0718 20.9325 30.3101 19.964 30.183 19.0059C30.0558 18.0481 29.5728 17.1714 28.829 16.538C28.0856 15.9051 27.1321 15.5577 26.1472 15.5571L26.1319 15.5571L26.1167 15.558L26.0881 15.5597L25.4722 15.597L25.6363 16.1918L26.5261 19.4168C26.5476 19.5039 26.5339 19.5963 26.4853 19.676C26.4357 19.7574 26.352 19.8212 26.2484 19.8479C26.1445 19.8747 26.0344 19.8606 25.9429 19.8105C25.8531 19.7612 25.7914 19.683 25.7649 19.5964L24.8752 16.3682L24.7078 15.7606Z" fill="#101210" stroke="#101210"/>
</svg>
