<svg width="31" height="32" viewBox="0 0 31 32" fill="none" xmlns="http://www.w3.org/2000/svg">
<path d="M8.6535 23.9172V26.2823M19.6907 23.9172V26.2823M5.5 16.0334H22.8442M21.2675 5.78455H7.07675C6.65857 5.78455 6.25752 5.95067 5.96182 6.24637C5.66612 6.54206 5.5 6.94312 5.5 7.36129V22.3404C5.5 22.7586 5.66612 23.1596 5.96182 23.4553C6.25752 23.751 6.65857 23.9172 7.07675 23.9172H21.2675C21.6857 23.9172 22.0867 23.751 22.3824 23.4553C22.6781 23.1596 22.8442 22.7586 22.8442 22.3404V7.36129C22.8442 6.94312 22.6781 6.54206 22.3824 6.24637C22.0867 5.95067 21.6857 5.78455 21.2675 5.78455Z" stroke="#101210" stroke-width="2" stroke-linecap="round" stroke-linejoin="round"/>
<circle cx="9.25871" cy="19.6652" r="1" fill="#101210" stroke="#101210" stroke-width="0.278656"/>
<circle cx="19.228" cy="19.6652" r="1" fill="#101210" stroke="#101210" stroke-width="0.278656"/>
</svg>
