<svg width="31" height="31" viewBox="0 0 31 31" fill="none" xmlns="http://www.w3.org/2000/svg">
<path d="M18.5 16.5587V16.7685L18.6498 16.9155C19.5441 17.7932 20.1467 18.9028 20.3853 20.1041C20.6239 21.3053 20.4885 22.5477 19.9952 23.6765C19.5018 24.8055 18.6714 25.7724 17.6049 26.4538C16.5383 27.1354 15.2842 27.5 14 27.5C12.7158 27.5 11.4617 27.1354 10.3951 26.4538C9.32862 25.7724 8.49815 24.8055 8.00476 23.6765C7.51148 22.5477 7.37612 21.3053 7.61468 20.1041C7.85327 18.9028 8.4559 17.7932 9.35022 16.9155L9.5 16.7685V16.5587V7.8077C9.5 6.67169 9.96915 5.57806 10.811 4.76856C11.6536 3.95842 12.8003 3.5 14 3.5C15.1997 3.5 16.3464 3.95842 17.189 4.76856C18.0309 5.57806 18.5 6.67169 18.5 7.8077V16.5587ZM14.5 18.5481V18.9063L14.8391 19.0215C15.3988 19.2117 15.8659 19.5844 16.1615 20.0689C16.4569 20.5529 16.5636 21.1192 16.4656 21.6687C16.3675 22.2185 16.0697 22.7215 15.6195 23.0865C15.1688 23.4518 14.5953 23.6543 14 23.6543C13.4047 23.6543 12.8312 23.4518 12.3805 23.0865L12.0656 23.4749L12.3805 23.0865C11.9303 22.7215 11.6325 22.2185 11.5344 21.6687C11.4364 21.1192 11.5431 20.5529 11.8385 20.0689C12.1341 19.5844 12.6012 19.2117 13.1609 19.0215L13.5 18.9063V18.5481V11.6539C13.5 11.5379 13.5477 11.4226 13.6394 11.3344C13.7318 11.2455 13.8612 11.1923 14 11.1923C14.1388 11.1923 14.2682 11.2455 14.3606 11.3344C14.4523 11.4226 14.5 11.5379 14.5 11.6539V18.5481ZM14 4.42308C13.0779 4.42308 12.1899 4.7751 11.5321 5.40755C10.8737 6.04064 10.5 6.90357 10.5 7.8077V17.1697L10.341 17.3065C10.341 17.3065 10.3409 17.3065 10.3409 17.3066C9.50966 18.0214 8.92101 18.9645 8.65636 20.0127C8.39164 21.0611 8.4644 22.1622 8.86437 23.1692C9.26424 24.1759 9.97124 25.0388 10.8885 25.6461C11.8054 26.2532 12.8905 26.577 14 26.577C15.1095 26.577 16.1946 26.2532 17.1115 25.6461C18.0288 25.0388 18.7358 24.1759 19.1356 23.1692C19.5356 22.1622 19.6084 21.0611 19.3436 20.0127C19.079 18.9644 18.4903 18.0213 17.659 17.3065L17.5 17.1697V7.8077C17.5 6.90357 17.1263 6.04064 16.4679 5.40755C15.8101 4.7751 14.9221 4.42308 14 4.42308Z" fill="#101210" stroke="#101210"/>
</svg>
