<svg width="31" height="32" viewBox="0 0 31 32" fill="none" xmlns="http://www.w3.org/2000/svg">
<g clip-path="url(#clip0_2367_2403)">
<path d="M20.4276 15.4498C20.4276 17.9128 17.8005 20.3158 13.9916 20.3158C10.1827 20.3158 7.55554 17.9043 7.55554 15.4498C7.55554 12.9868 10.1827 10.5839 13.9916 10.5839C17.8005 10.5839 20.4276 12.9954 20.4276 15.4498Z" stroke="#101210" stroke-width="2"/>
<path d="M6.49273 19.5101H8.63524C9.81702 19.5101 10.7778 20.4799 10.7778 21.6728C10.7778 22.8657 9.81702 23.8354 8.63524 23.8354H6.49273C5.31095 23.8354 4.35022 22.8657 4.35022 21.6728C4.35022 20.4799 5.31095 19.5101 6.49273 19.5101Z" stroke="#101210" stroke-width="2"/>
<path d="M19.3563 19.5101H21.4988C22.6805 19.5101 23.6413 20.4799 23.6413 21.6728C23.6413 22.8657 22.6805 23.8354 21.4988 23.8354H19.3563C18.1745 23.8354 17.2137 22.8657 17.2137 21.6728C17.2137 20.4799 18.1745 19.5101 19.3563 19.5101Z" stroke="#101210" stroke-width="2"/>
<path d="M13.9915 21.1826C16.6527 21.2255 19.3648 20.3502 21.2863 18.445C23.1482 16.5998 23.9049 13.9394 23.0972 11.3992C22.7401 10.275 22.1535 9.27087 21.4308 8.34402C21.1587 8.82461 20.8782 9.29662 20.6061 9.77721C21.8899 10.2578 23.3182 9.6399 23.8709 8.37835C24.398 7.1683 24.0154 5.82952 22.9442 5.09147C21.2353 3.91574 18.8462 4.68812 18.0045 6.56756C18.3956 6.46458 18.7782 6.3616 19.1693 6.25861C15.845 4.78252 12.1551 4.77394 8.8223 6.25861C9.20489 6.3616 9.59598 6.46458 9.97857 6.56756C9.14537 4.70528 6.7393 3.90716 5.0389 5.10005C4.01015 5.82093 3.59355 7.09106 4.06967 8.28395C4.59679 9.59699 6.04214 10.2835 7.37695 9.77721C7.09639 9.3052 6.82432 8.82461 6.55226 8.35261C5.08141 10.2321 4.16319 12.6264 4.72432 15.0379C5.28546 17.4151 7.19841 19.2946 9.35792 20.2643C10.8203 20.908 12.3931 21.2083 13.9915 21.1826C15.0883 21.1654 15.0883 19.4491 13.9915 19.4662C11.3389 19.5091 8.43971 18.4793 6.99436 16.0935C6.3142 14.9693 6.08465 13.6648 6.38222 12.3775C6.52675 11.7425 6.76481 11.1503 7.08788 10.5839C7.20691 10.3608 7.34295 10.1376 7.49598 9.9231C7.5555 9.83728 7.61501 9.75146 7.67452 9.66564C7.70853 9.62273 7.73404 9.57982 7.76805 9.5455C7.70003 9.62273 7.70003 9.63132 7.75104 9.56266C7.9891 9.26229 8.09112 8.8761 7.88707 8.52425C7.70853 8.2153 7.27493 8.00075 6.92635 8.12948C6.3142 8.35261 5.67655 8.12089 5.57452 7.41718C5.4895 6.86793 5.8806 6.52465 6.33971 6.33585C6.28019 6.3616 6.58627 6.25861 6.67979 6.24145C6.95185 6.18996 7.24092 6.24145 7.48748 6.3616C7.95509 6.56756 8.27817 6.91084 8.50772 7.43434C8.71177 7.88918 9.28991 7.91493 9.6725 7.74329C12.3846 6.53324 15.5984 6.53324 18.3106 7.74329C18.6931 7.91493 19.2713 7.89776 19.4753 7.43434C19.7134 6.91084 20.028 6.56756 20.4956 6.3616C20.7506 6.25003 21.0312 6.19854 21.3118 6.24145C21.4053 6.25861 21.7114 6.3616 21.6519 6.33585C22.111 6.52465 22.4936 6.86793 22.417 7.41718C22.315 8.12089 21.6774 8.36119 21.0652 8.12948C20.7166 8.00075 20.283 8.2153 20.1045 8.52425C19.9004 8.8761 20.0025 9.26229 20.2405 9.56266C20.2915 9.63132 20.2915 9.62273 20.2235 9.53691C20.2575 9.57982 20.283 9.62273 20.317 9.65706C20.368 9.72572 20.4191 9.80295 20.4701 9.87161C20.6146 10.0862 20.7506 10.3007 20.8782 10.5238C21.1927 11.0817 21.4393 11.6652 21.5923 12.2917C21.9154 13.6048 21.6944 14.935 20.9972 16.0849C19.5434 18.4621 16.6527 19.5005 14 19.4576C12.8948 19.4491 12.8948 21.1654 13.9915 21.1826Z" fill="#101210"/>
</g>
<defs>
<clipPath id="clip0_2367_2403">
<rect width="21" height="21" fill="white" transform="translate(3.5 3.6936)"/>
</clipPath>
</defs>
</svg>
