<svg width="24" height="24" viewBox="0 0 24 24" fill="none" xmlns="http://www.w3.org/2000/svg">
<g clip-path="url(#clip0_2089_5848)">
<path d="M19.3458 13.4356C19.3458 16.2505 16.3434 18.9967 11.9904 18.9967C7.63732 18.9967 4.63489 16.2407 4.63489 13.4356C4.63489 10.6207 7.63732 7.87451 11.9904 7.87451C16.3434 7.87451 19.3458 10.6305 19.3458 13.4356Z" stroke="#C4C4C4" stroke-width="2"/>
<path d="M3.42026 18.0759H5.86885C7.21945 18.0759 8.31743 19.1842 8.31743 20.5475C8.31743 21.9108 7.21945 23.0191 5.86885 23.0191H3.42026C2.06966 23.0191 0.97168 21.9108 0.97168 20.5475C0.97168 19.1842 2.06966 18.0759 3.42026 18.0759Z" stroke="#C4C4C4" stroke-width="2"/>
<path d="M18.1214 18.0759H20.57C21.9206 18.0759 23.0186 19.1842 23.0186 20.5475C23.0186 21.9108 21.9206 23.0191 20.57 23.0191H18.1214C16.7708 23.0191 15.6729 21.9108 15.6729 20.5475C15.6729 19.1842 16.7708 18.0759 18.1214 18.0759Z" stroke="#C4C4C4" stroke-width="2"/>
<path d="M11.9903 19.9874C15.0316 20.0365 18.1312 19.0361 20.3271 16.8587C22.4551 14.75 23.3199 11.7095 22.3968 8.80639C21.9887 7.52155 21.3182 6.37402 20.4923 5.31477C20.1814 5.86401 19.8607 6.40345 19.5498 6.95269C21.017 7.50193 22.6494 6.79576 23.281 5.354C23.8834 3.97108 23.4462 2.44104 22.2219 1.59756C20.2688 0.253875 17.5385 1.13659 16.5765 3.28453C17.0235 3.16683 17.4607 3.04913 17.9077 2.93144C14.1085 1.24448 9.89152 1.23467 6.08261 2.93144C6.51986 3.04913 6.96682 3.16683 7.40407 3.28453C6.45184 1.1562 3.70204 0.244067 1.75872 1.60737C0.583014 2.43124 0.1069 3.88281 0.65103 5.24611C1.25346 6.74672 2.90528 7.53136 4.43079 6.95269C4.11014 6.41325 3.79921 5.86401 3.48828 5.32457C1.80731 7.47251 0.757912 10.2089 1.39921 12.965C2.0405 15.6817 4.22674 17.8297 6.69475 18.938C8.36601 19.6736 10.1636 20.0169 11.9903 19.9874C13.2437 19.9678 13.2437 18.0062 11.9903 18.0258C8.95872 18.0749 5.64536 16.8979 3.99354 14.1713C3.21621 12.8865 2.95386 11.3957 3.29395 9.92449C3.45913 9.19871 3.73119 8.52196 4.10042 7.87464C4.23645 7.61963 4.39192 7.36462 4.56682 7.11943C4.63484 7.02135 4.70285 6.92327 4.77087 6.82519C4.80973 6.77615 4.83888 6.72711 4.87775 6.68788C4.80002 6.77615 4.80002 6.78596 4.85832 6.70749C5.13038 6.36421 5.24698 5.92286 5.01378 5.52073C4.80973 5.16765 4.31419 4.92245 3.91581 5.06957C3.21621 5.32457 2.48747 5.05976 2.37087 4.25551C2.2737 3.6278 2.72067 3.23549 3.24536 3.01971C3.17735 3.04913 3.52714 2.93144 3.63403 2.91182C3.94496 2.85298 4.27532 2.91182 4.5571 3.04913C5.09152 3.28453 5.46075 3.67684 5.72309 4.27513C5.95629 4.79495 6.61702 4.82437 7.05427 4.62821C10.1539 3.24529 13.8267 3.24529 16.9263 4.62821C17.3636 4.82437 18.0243 4.80475 18.2575 4.27513C18.5296 3.67684 18.8891 3.28453 19.4235 3.04913C19.715 2.92163 20.0356 2.86278 20.3563 2.91182C20.4632 2.93144 20.813 3.04913 20.745 3.01971C21.2697 3.23549 21.7069 3.6278 21.6195 4.25551C21.5029 5.05976 20.7741 5.33438 20.0745 5.06957C19.6761 4.92245 19.1806 5.16765 18.9765 5.52073C18.7433 5.92286 18.8599 6.36421 19.132 6.70749C19.1903 6.78596 19.1903 6.77615 19.1126 6.67807C19.1514 6.72711 19.1806 6.77615 19.2195 6.81538C19.2778 6.89384 19.3361 6.98211 19.3943 7.06058C19.5595 7.30578 19.715 7.55097 19.8607 7.80598C20.2203 8.4435 20.502 9.11043 20.6769 9.82641C21.0462 11.327 20.7935 12.8473 19.9968 14.1615C18.3352 16.8783 15.0316 18.0651 12 18.016C10.7369 18.0062 10.7369 19.9678 11.9903 19.9874Z" fill="#C3C3C3"/>
</g>
<defs>
<clipPath id="clip0_2089_5848">
<rect width="24" height="24" fill="white"/>
</clipPath>
</defs>
</svg>
