<svg width="24" height="24" viewBox="0 0 24 24" fill="none" xmlns="http://www.w3.org/2000/svg">
<g clip-path="url(#clip0_2089_5856)">
<path d="M3.42026 18.0759H5.86885C7.21945 18.0759 8.31743 19.1842 8.31743 20.5475C8.31743 21.9108 7.21945 23.0191 5.86885 23.0191H3.42026C2.06966 23.0191 0.97168 21.9108 0.97168 20.5475C0.97168 19.1842 2.06966 18.0759 3.42026 18.0759Z" fill="#101210" stroke="#101210" stroke-width="2"/>
<path d="M18.1214 18.0759H20.57C21.9206 18.0759 23.0186 19.1842 23.0186 20.5475C23.0186 21.9108 21.9206 23.0191 20.57 23.0191H18.1214C16.7708 23.0191 15.6729 21.9108 15.6729 20.5475C15.6729 19.1842 16.7708 18.0759 18.1214 18.0759Z" fill="#101210" stroke="#101210" stroke-width="2"/>
<path fill-rule="evenodd" clip-rule="evenodd" d="M11.9903 19.9874C15.0316 20.0365 18.1312 19.0361 20.3271 16.8587C22.4551 14.75 23.3199 11.7095 22.3968 8.80639C22.1903 8.15642 21.9167 7.54158 21.5899 6.95554C22.3207 6.68442 22.9436 6.12416 23.281 5.354C23.8834 3.97108 23.4462 2.44104 22.2219 1.59756C20.505 0.41635 18.1874 0.95567 16.9985 2.56255C13.7454 1.36465 10.2419 1.3596 6.9824 2.56499C5.79601 0.968259 3.4661 0.409588 1.75872 1.60737C0.583014 2.43124 0.1069 3.88281 0.65103 5.24611C0.982382 6.07149 1.63121 6.68026 2.40187 6.96472C1.40102 8.78697 0.911805 10.8703 1.39921 12.965C2.0405 15.6817 4.22674 17.8297 6.69475 18.938C8.36601 19.6736 10.1636 20.0169 11.9903 19.9874ZM11.4566 18.0218C7.75203 17.8117 5.59473 15.4307 5.59473 13.4357C5.59473 11.3379 7.95885 8.83461 11.9902 8.83461C16.0204 8.83461 18.3857 11.3468 18.3857 13.4357C18.3857 15.3794 16.3563 17.671 12.8518 17.9974C12.5665 18.0145 12.2821 18.0206 12 18.016C11.9407 18.0156 11.8842 18.0195 11.8304 18.0273C11.7062 18.0275 11.5815 18.0257 11.4566 18.0218Z" fill="#101210"/>
</g>
<defs>
<clipPath id="clip0_2089_5856">
<rect width="24" height="24" fill="white"/>
</clipPath>
</defs>
</svg>
