<svg width="18" height="17" viewBox="0 0 18 17" fill="none" xmlns="http://www.w3.org/2000/svg">
<path fill-rule="evenodd" clip-rule="evenodd" d="M7.50255 7.404C6.14498 8.22015 4.12786 8.03186 2.85484 7.06815C1.28791 5.88195 -0.718009 1.85828 0.256551 0.570932C1.1745 -0.641635 5.99675 0.277998 7.56368 1.46421C7.99978 1.79434 8.34499 2.22116 8.59016 2.69956C8.83534 2.22116 9.18055 1.79434 9.61665 1.46421C11.1836 0.277998 16.0058 -0.641635 16.9238 0.570932C17.8983 1.85828 15.8924 5.88195 14.3255 7.06815C13.083 8.00872 11.1318 8.21066 9.77669 7.46106V8.88755L14.689 8.88755C15.5263 8.88755 16.2116 9.57019 16.1572 10.4057C15.7366 16.8635 12.5092 16.8635 8.59017 16.8635C4.67116 16.8635 1.44374 16.8635 1.02315 10.4057C0.968734 9.57019 1.65401 8.88755 2.49133 8.88755H7.50255V7.404Z" fill="#6CAA06"/>
</svg>
