<svg width="93" height="23" viewBox="0 0 93 23" fill="none" xmlns="http://www.w3.org/2000/svg">
<path d="M15.125 11.45C15.125 13.35 14.925 14.975 14.525 16.275C14.1 17.6 13.575 18.675 12.925 19.475C12.25 20.275 11.5 20.85 10.65 21.225C9.775 21.575 8.9 21.775 8 21.775C7.075 21.775 6.2 21.575 5.35 21.225C4.475 20.85 3.725 20.275 3.075 19.475C2.4 18.675 1.875 17.6 1.475 16.275C1.075 14.975 0.875 13.35 0.875 11.45C0.875 9.55 1.075 7.95 1.475 6.625C1.875 5.325 2.4 4.275 3.075 3.45C3.725 2.65 4.475 2.05 5.35 1.675C6.2 1.325 7.075 1.125 8 1.125C8.9 1.125 9.775 1.325 10.65 1.675C11.5 2.05 12.25 2.65 12.925 3.45C13.575 4.275 14.1 5.325 14.525 6.625C14.925 7.95 15.125 9.55 15.125 11.45ZM4.775 11.45C4.775 12.875 4.85 14.05 5.05 14.975C5.2 15.925 5.45 16.65 5.75 17.2C6.025 17.775 6.375 18.175 6.775 18.375C7.15 18.625 7.55 18.725 8 18.725C8.4 18.725 8.825 18.625 9.225 18.375C9.6 18.175 9.95 17.775 10.25 17.225C10.525 16.675 10.75 15.925 10.95 14.975C11.1 14.05 11.2 12.875 11.2 11.425C11.2 10.025 11.1 8.85 10.95 7.9C10.75 6.975 10.525 6.225 10.25 5.675C9.95 5.125 9.6 4.75 9.225 4.5C8.825 4.3 8.4 4.175 8 4.175C7.55 4.175 7.15 4.3 6.775 4.5C6.375 4.75 6.025 5.125 5.75 5.675C5.45 6.25 5.2 7 5.05 7.925C4.85 8.875 4.775 10.05 4.775 11.45ZM21.675 21.775H17.75V0.875H21.675V21.775Z" fill="#101210"/>
<path d="M25.2857 7.025C25.2857 5.975 25.5357 5.075 26.0357 4.325C26.5107 3.575 27.1857 2.975 28.0607 2.475C28.9107 2.025 29.9107 1.675 31.0607 1.425C32.2107 1.225 33.4357 1.1 34.7357 1.1C36.0357 1.1 37.2607 1.225 38.4107 1.425C39.5607 1.675 40.5607 2.025 41.4357 2.475C42.2857 2.975 42.9607 3.575 43.4607 4.325C43.9607 5.075 44.2107 5.975 44.2107 7.025C44.2107 8.075 43.9607 8.975 43.4607 9.725C42.9607 10.475 42.2857 11.1 41.4357 11.55C40.5607 12.05 39.5607 12.4 38.4107 12.6C37.2607 12.85 36.0357 12.95 34.7357 12.95C33.4357 12.95 32.2107 12.85 31.0607 12.6C29.9107 12.4 28.9107 12.05 28.0607 11.55C27.1857 11.1 26.5107 10.475 26.0357 9.725C25.5357 8.975 25.2857 8.075 25.2857 7.025ZM24.3107 15.15H45.1857V18.2H36.7107V22.55H32.7857V18.2H24.3107V15.15ZM29.2107 7.025C29.2107 7.975 29.6857 8.7 30.6857 9.175C31.6357 9.675 32.9857 9.9 34.7357 9.9C36.4357 9.9 37.8107 9.675 38.8107 9.175C39.7857 8.7 40.2857 7.975 40.2857 7.025C40.2857 6.075 39.7857 5.375 38.8107 4.875C37.8107 4.4 36.4357 4.15 34.7357 4.15C32.9857 4.15 31.6357 4.4 30.6857 4.875C29.6857 5.375 29.2107 6.075 29.2107 7.025Z" fill="#101210"/>
<path d="M48.5465 1.475H66.9715V15.35H59.7215V18.725H68.1965V21.775H47.3215V18.725H55.7965V15.35H48.5465V1.475ZM52.4715 12.3H63.0465V4.525H52.4715V12.3Z" fill="#101210"/>
<path d="M83.6572 11.45C83.6572 13.35 83.4572 14.975 83.0572 16.275C82.6572 17.6 82.1322 18.675 81.4822 19.475C80.8322 20.275 80.0822 20.85 79.2822 21.225C78.4322 21.575 77.6072 21.775 76.7822 21.775C75.9322 21.775 75.0822 21.575 74.2822 21.225C73.4322 20.85 72.7072 20.275 72.0572 19.475C71.4072 18.675 70.8822 17.6 70.5072 16.275C70.1072 14.975 69.9072 13.35 69.9072 11.45C69.9072 9.55 70.1072 7.95 70.5072 6.625C70.8822 5.325 71.4072 4.275 72.0572 3.45C72.7072 2.65 73.4322 2.05 74.2822 1.675C75.0822 1.325 75.9322 1.125 76.7822 1.125C77.6072 1.125 78.4322 1.325 79.2822 1.675C80.0822 2.05 80.8322 2.65 81.4822 3.45C82.1322 4.275 82.6572 5.325 83.0572 6.625C83.4572 7.95 83.6572 9.55 83.6572 11.45ZM89.9572 8.7H92.1322V11.75H89.9572V21.775H86.0322V0.875H89.9572V8.7ZM73.8072 11.45C73.8072 12.875 73.8822 14.05 74.0572 14.975C74.2072 15.925 74.4322 16.65 74.7322 17.2C75.0072 17.775 75.3322 18.175 75.6822 18.375C76.0322 18.625 76.3822 18.725 76.7822 18.725C77.1322 18.725 77.5072 18.625 77.8572 18.375C78.2072 18.175 78.5072 17.775 78.8072 17.225C79.0572 16.675 79.2822 15.925 79.4822 14.975C79.6322 14.05 79.7322 12.875 79.7322 11.425C79.7322 10.025 79.6322 8.85 79.4822 7.9C79.2822 6.975 79.0572 6.225 78.8072 5.675C78.5072 5.125 78.2072 4.75 77.8572 4.5C77.5072 4.3 77.1322 4.175 76.7822 4.175C76.3822 4.175 76.0322 4.3 75.6822 4.5C75.3322 4.75 75.0072 5.125 74.7322 5.675C74.4322 6.25 74.2072 7 74.0572 7.925C73.8822 8.875 73.8072 10.05 73.8072 11.45Z" fill="#101210"/>
</svg>
