<svg width="121" height="270" viewBox="0 0 121 270" fill="none" xmlns="http://www.w3.org/2000/svg">
<g filter="url(#filter0_ii_2292_4354)">
<path d="M0 249H121V250C121 261.046 112.046 270 101 270H20C8.95431 270 0 261.046 0 250V249Z" fill="url(#paint0_linear_2292_4354)"/>
</g>
<path d="M59.533 95L113 251" stroke="url(#paint1_linear_2292_4354)" stroke-width="3" stroke-linecap="round" stroke-linejoin="bevel"/>
<path d="M67 96.2336C67 99.9706 64.0899 103 60.5 103C56.9101 103 54 99.9706 54 96.2336C54 92.4966 56.9101 89.4672 60.5 89.4672V0" stroke="url(#paint2_linear_2292_4354)" stroke-width="3"/>
<path d="M7 251L59.533 95" stroke="url(#paint3_linear_2292_4354)" stroke-width="3" stroke-linecap="round" stroke-linejoin="bevel"/>
<defs>
<filter id="filter0_ii_2292_4354" x="0" y="244.6" width="121" height="29.1" filterUnits="userSpaceOnUse" color-interpolation-filters="sRGB">
<feFlood flood-opacity="0" result="BackgroundImageFix"/>
<feBlend mode="normal" in="SourceGraphic" in2="BackgroundImageFix" result="shape"/>
<feColorMatrix in="SourceAlpha" type="matrix" values="0 0 0 0 0 0 0 0 0 0 0 0 0 0 0 0 0 0 127 0" result="hardAlpha"/>
<feOffset dy="4"/>
<feGaussianBlur stdDeviation="1.85"/>
<feComposite in2="hardAlpha" operator="arithmetic" k2="-1" k3="1"/>
<feColorMatrix type="matrix" values="0 0 0 0 1 0 0 0 0 1 0 0 0 0 1 0 0 0 0.25 0"/>
<feBlend mode="normal" in2="shape" result="effect1_innerShadow_2292_4354"/>
<feColorMatrix in="SourceAlpha" type="matrix" values="0 0 0 0 0 0 0 0 0 0 0 0 0 0 0 0 0 0 127 0" result="hardAlpha"/>
<feOffset dy="-13"/>
<feGaussianBlur stdDeviation="2.2"/>
<feComposite in2="hardAlpha" operator="arithmetic" k2="-1" k3="1"/>
<feColorMatrix type="matrix" values="0 0 0 0 0.85098 0 0 0 0 0.631373 0 0 0 0 0.380392 0 0 0 1 0"/>
<feBlend mode="normal" in2="effect1_innerShadow_2292_4354" result="effect2_innerShadow_2292_4354"/>
</filter>
<linearGradient id="paint0_linear_2292_4354" x1="1.36038e-07" y1="240.5" x2="118.5" y2="283" gradientUnits="userSpaceOnUse">
<stop stop-color="#FFE8A0"/>
<stop offset="0.880649" stop-color="#FED479"/>
</linearGradient>
<linearGradient id="paint1_linear_2292_4354" x1="60" y1="95" x2="60" y2="251" gradientUnits="userSpaceOnUse">
<stop stop-color="#A95628"/>
<stop offset="1" stop-color="#F1CC36"/>
</linearGradient>
<linearGradient id="paint2_linear_2292_4354" x1="60.5" y1="0" x2="60.5" y2="103" gradientUnits="userSpaceOnUse">
<stop stop-color="#A95628"/>
<stop offset="1" stop-color="#F1CC36"/>
</linearGradient>
<linearGradient id="paint3_linear_2292_4354" x1="60" y1="95" x2="60" y2="251" gradientUnits="userSpaceOnUse">
<stop stop-color="#A95628"/>
<stop offset="1" stop-color="#F1CC36"/>
</linearGradient>
</defs>
</svg>
