<svg width="126" height="126" viewBox="0 0 126 126" fill="none" xmlns="http://www.w3.org/2000/svg">
<g filter="url(#filter0_dd_2304_2130)">
<circle cx="63" cy="55" r="45" fill="white" fill-opacity="0.8"/>
</g>
<g filter="url(#filter1_ii_2304_2130)">
<path d="M76.3333 63H53.8333C52.2862 63 50.8025 62.3547 49.7085 61.206C48.6146 60.0574 48 58.4995 48 56.875V33.25C48 31.8576 48.5268 30.5223 49.4645 29.5377C50.4021 28.5531 51.6739 28 53 28H76.3333C76.7754 28 77.1993 28.1844 77.5118 28.5126C77.8244 28.8408 78 29.2859 78 29.75V61.25C78 61.7141 77.8244 62.1592 77.5118 62.4874C77.1993 62.8156 76.7754 63 76.3333 63ZM74.6667 59.5V54.25H53.8333C53.1703 54.25 52.5344 54.5266 52.0656 55.0188C51.5967 55.5111 51.3333 56.1788 51.3333 56.875C51.3333 57.5712 51.5967 58.2389 52.0656 58.7312C52.5344 59.2234 53.1703 59.5 53.8333 59.5H74.6667Z" fill="#42650F"/>
</g>
<path d="M61.7266 78.1814H58.1706V81.2334H63.1126V82.3814H51.8426V81.2334H56.7426V78.1814H53.3126V72.4414H61.6566V73.6034H54.7546V77.0194H61.7266V78.1814ZM75.4779 75.6474H73.6439V78.4894H72.2019V71.4894H73.6439V74.4434H75.4779V75.6474ZM70.1719 72.2874C70.1346 73.9208 69.6119 75.2694 68.6039 76.3334C67.6053 77.3881 66.2566 78.1301 64.5579 78.5594L63.8299 77.4254C65.0059 77.2014 66.0513 76.7441 66.9659 76.0534C67.8806 75.3534 68.4219 74.4948 68.5899 73.4774H64.4459V72.2874H70.1719ZM73.6439 83.8094H65.6639V79.1054H73.6439V83.8094ZM72.2019 82.6754V80.2394H67.1059V82.6754H72.2019Z" fill="#334E0C"/>
<defs>
<filter id="filter0_dd_2304_2130" x="0" y="0" width="126" height="126" filterUnits="userSpaceOnUse" color-interpolation-filters="sRGB">
<feFlood flood-opacity="0" result="BackgroundImageFix"/>
<feColorMatrix in="SourceAlpha" type="matrix" values="0 0 0 0 0 0 0 0 0 0 0 0 0 0 0 0 0 0 127 0" result="hardAlpha"/>
<feOffset dy="4"/>
<feGaussianBlur stdDeviation="2"/>
<feColorMatrix type="matrix" values="0 0 0 0 0 0 0 0 0 0 0 0 0 0 0 0 0 0 0.3 0"/>
<feBlend mode="normal" in2="BackgroundImageFix" result="effect1_dropShadow_2304_2130"/>
<feColorMatrix in="SourceAlpha" type="matrix" values="0 0 0 0 0 0 0 0 0 0 0 0 0 0 0 0 0 0 127 0" result="hardAlpha"/>
<feMorphology radius="6" operator="dilate" in="SourceAlpha" result="effect2_dropShadow_2304_2130"/>
<feOffset dy="8"/>
<feGaussianBlur stdDeviation="6"/>
<feColorMatrix type="matrix" values="0 0 0 0 0 0 0 0 0 0 0 0 0 0 0 0 0 0 0.15 0"/>
<feBlend mode="normal" in2="effect1_dropShadow_2304_2130" result="effect2_dropShadow_2304_2130"/>
<feBlend mode="normal" in="SourceGraphic" in2="effect2_dropShadow_2304_2130" result="shape"/>
</filter>
<filter id="filter1_ii_2304_2130" x="48" y="27.1" width="30" height="36.9" filterUnits="userSpaceOnUse" color-interpolation-filters="sRGB">
<feFlood flood-opacity="0" result="BackgroundImageFix"/>
<feBlend mode="normal" in="SourceGraphic" in2="BackgroundImageFix" result="shape"/>
<feColorMatrix in="SourceAlpha" type="matrix" values="0 0 0 0 0 0 0 0 0 0 0 0 0 0 0 0 0 0 127 0" result="hardAlpha"/>
<feOffset dy="1"/>
<feGaussianBlur stdDeviation="0.5"/>
<feComposite in2="hardAlpha" operator="arithmetic" k2="-1" k3="1"/>
<feColorMatrix type="matrix" values="0 0 0 0 0.937255 0 0 0 0 0.996078 0 0 0 0 0.788235 0 0 0 0.3 0"/>
<feBlend mode="normal" in2="shape" result="effect1_innerShadow_2304_2130"/>
<feColorMatrix in="SourceAlpha" type="matrix" values="0 0 0 0 0 0 0 0 0 0 0 0 0 0 0 0 0 0 127 0" result="hardAlpha"/>
<feOffset dy="-1"/>
<feGaussianBlur stdDeviation="0.45"/>
<feComposite in2="hardAlpha" operator="arithmetic" k2="-1" k3="1"/>
<feColorMatrix type="matrix" values="0 0 0 0 0 0 0 0 0 0 0 0 0 0 0 0 0 0 0.25 0"/>
<feBlend mode="normal" in2="effect1_innerShadow_2304_2130" result="effect2_innerShadow_2304_2130"/>
</filter>
</defs>
</svg>
