<svg width="25" height="25" viewBox="0 0 25 25" fill="none" xmlns="http://www.w3.org/2000/svg">
<path d="M4.90723 9.66342C5.73485 10.29 6.90396 10.6295 8.0413 10.5763C9.17756 10.5232 10.1477 10.0895 10.716 9.33885C11.9576 7.6988 11.5566 5.1105 9.91187 3.86542C9.5181 3.56733 8.84773 3.2395 7.98493 2.94543C7.13803 2.65677 6.16987 2.42223 5.22688 2.28129C4.27723 2.13935 3.3955 2.09873 2.71034 2.17313C1.95659 2.25498 1.7092 2.44595 1.67335 2.49331C1.59311 2.5993 1.48134 2.91739 1.57011 3.59557C1.65349 4.23268 1.8923 5.00994 2.24871 5.82435C2.97562 7.48538 4.06751 9.02773 4.90723 9.66342Z" stroke="#C4C4C4" stroke-width="2"/>
<path d="M18.8319 9.66342C18.0043 10.29 16.8352 10.6295 15.6978 10.5763C14.5616 10.5232 13.5914 10.0895 13.0231 9.33885C11.7816 7.6988 12.1826 5.1105 13.8273 3.86542C14.221 3.56733 14.8914 3.2395 15.7542 2.94543C16.6011 2.65677 17.5693 2.42223 18.5123 2.28129C19.4619 2.13935 20.3436 2.09873 21.0288 2.17313C21.7825 2.25498 22.0299 2.44595 22.0658 2.49331C22.146 2.5993 22.2578 2.91739 22.169 3.59557C22.0856 4.23268 21.8468 5.00994 21.4904 5.82435C20.7635 7.48538 19.6716 9.02773 18.8319 9.66342Z" stroke="#C4C4C4" stroke-width="2"/>
<path d="M2.88524 14.7986C2.85372 14.3147 3.25481 13.8608 3.82414 13.8608L3.83795 13.8608L3.85178 13.8608L3.86565 13.8608L3.87956 13.8608L3.8935 13.8608L3.90747 13.8608L3.92147 13.8608L3.93551 13.8608L3.94957 13.8608L3.96368 13.8608L3.97781 13.8608L3.99197 13.8608L4.00617 13.8608L4.0204 13.8608L4.03466 13.8608L4.04895 13.8608L4.06327 13.8608L4.07762 13.8608L4.09201 13.8608L4.10643 13.8608L4.12087 13.8608L4.13535 13.8608L4.14985 13.8608L4.16439 13.8608L4.17896 13.8608L4.19355 13.8608L4.20818 13.8608L4.22283 13.8608L4.23752 13.8608L4.25223 13.8608L4.26698 13.8608L4.28175 13.8608L4.29655 13.8608L4.31138 13.8608L4.32624 13.8608L4.34112 13.8608L4.35604 13.8608L4.37098 13.8608L4.38595 13.8608L4.40095 13.8608L4.41598 13.8608L4.43103 13.8608L4.44611 13.8608L4.46122 13.8608L4.47635 13.8608L4.49151 13.8608L4.5067 13.8608L4.52191 13.8608L4.53715 13.8608L4.55242 13.8608L4.56771 13.8608L4.58303 13.8608L4.59838 13.8608L4.61375 13.8608L4.62914 13.8608L4.64456 13.8608L4.66001 13.8608L4.67548 13.8608L4.69097 13.8608L4.70649 13.8608L4.72204 13.8608L4.73761 13.8608L4.7532 13.8608L4.76882 13.8608L4.78446 13.8608L4.80012 13.8608L4.81581 13.8608L4.83152 13.8608L4.84726 13.8608L4.86302 13.8608L4.87879 13.8608L4.8946 13.8608L4.91042 13.8608L4.92627 13.8608L4.94215 13.8608L4.95804 13.8608L4.97395 13.8608L4.98989 13.8608L5.00585 13.8608L5.02183 13.8608L5.03783 13.8608L5.05385 13.8608L5.0699 13.8608L5.08596 13.8608L5.10205 13.8608L5.11816 13.8608L5.13428 13.8608L5.15043 13.8608L5.1666 13.8608L5.18279 13.8608L5.19899 13.8608L5.21522 13.8608L5.23147 13.8608L5.24773 13.8608L5.26402 13.8608L5.28032 13.8608L5.29665 13.8608L5.31299 13.8608L5.32935 13.8608L5.34573 13.8608L5.36213 13.8608L5.37854 13.8608L5.39498 13.8608L5.41143 13.8608L5.4279 13.8608L5.44439 13.8608L5.46089 13.8608L5.47741 13.8608L5.49395 13.8608L5.51051 13.8608L5.52708 13.8608L5.54367 13.8608L5.56028 13.8608L5.5769 13.8608L5.59354 13.8608L5.6102 13.8608L5.62687 13.8608L5.64355 13.8608L5.66025 13.8608L5.67697 13.8608L5.69371 13.8608L5.71045 13.8608L5.72722 13.8608L5.74399 13.8608L5.76078 13.8608L5.77759 13.8608L5.79441 13.8608L5.81125 13.8608L5.8281 13.8608L5.84496 13.8608L5.86184 13.8608L5.87873 13.8608L5.89563 13.8608L5.91255 13.8608L5.92948 13.8608L5.94643 13.8608L5.96338 13.8608L5.98035 13.8608L5.99733 13.8608L6.01433 13.8608L6.03133 13.8608L6.04835 13.8608L6.06538 13.8608L6.08243 13.8608L6.09948 13.8608L6.11654 13.8608L6.13362 13.8608L6.15071 13.8608L6.16781 13.8608L6.18492 13.8608L6.20204 13.8608L6.21917 13.8608L6.23631 13.8608L6.25346 13.8608L6.27062 13.8608L6.28779 13.8608L6.30497 13.8608L6.32216 13.8608L6.33936 13.8608L6.35657 13.8608L6.37379 13.8608L6.39102 13.8608L6.40826 13.8608L6.4255 13.8608L6.44276 13.8608L6.46002 13.8608L6.47729 13.8608L6.49457 13.8608L6.51185 13.8608L6.52915 13.8608L6.54645 13.8608L6.56376 13.8608L6.58107 13.8608L6.5984 13.8608L6.61573 13.8608L6.63307 13.8608L6.65041 13.8608L6.66776 13.8608L6.68512 13.8608L6.70248 13.8608L6.71985 13.8608L6.73723 13.8608L6.75461 13.8608L6.772 13.8608L6.78939 13.8608L6.80679 13.8608L6.82419 13.8608L6.8416 13.8608L6.85901 13.8608L6.87643 13.8608L6.89385 13.8608L6.91128 13.8608L6.92871 13.8608L6.94614 13.8608L6.96358 13.8608L6.98102 13.8608L6.99847 13.8608L7.01592 13.8608L7.03337 13.8608L7.05083 13.8608L7.06829 13.8608L7.08575 13.8608L7.10322 13.8608L7.12068 13.8608L7.13815 13.8608L7.15562 13.8608L7.1731 13.8608L7.19058 13.8608L7.20805 13.8608L7.22553 13.8608L7.24301 13.8608L7.2605 13.8608L7.27798 13.8608L7.29547 13.8608L7.31295 13.8608L7.33044 13.8608L7.34792 13.8608L7.36541 13.8608L7.3829 13.8608L7.40039 13.8608L7.41787 13.8608L7.43536 13.8608L7.45285 13.8608L7.47034 13.8608L7.48782 13.8608L7.50531 13.8608L7.52279 13.8608L7.54028 13.8608L7.55776 13.8608L7.57524 13.8608L7.59272 13.8608L7.61019 13.8608L7.62767 13.8608L7.64514 13.8608L7.66261 13.8608L7.68008 13.8608L7.69755 13.8608L7.71501 13.8608L7.73247 13.8608L7.74993 13.8608L7.76739 13.8608L7.78484 13.8608L7.80229 13.8608L7.81973 13.8608L7.83717 13.8608L7.85461 13.8608L7.87204 13.8608L7.88947 13.8608L7.9069 13.8608L7.92432 13.8608L7.94173 13.8608L7.95914 13.8608L7.97655 13.8608L7.99395 13.8608L8.01134 13.8608L8.02873 13.8608L8.04612 13.8608L8.0635 13.8608L8.08087 13.8608L8.09824 13.8608L8.1156 13.8608L8.13295 13.8608L8.1503 13.8608L8.16764 13.8608L8.18498 13.8608L8.2023 13.8608L8.21962 13.8608L8.23694 13.8608L8.25424 13.8608L8.27154 13.8608L8.28883 13.8608L8.30612 13.8608L8.32339 13.8608L8.34066 13.8608L8.35791 13.8608L8.37516 13.8608L8.39241 13.8608L8.40964 13.8608L8.42686 13.8608L8.44408 13.8608L8.46128 13.8608L8.47848 13.8608L8.49566 13.8608L8.51284 13.8608L8.53001 13.8608L8.54716 13.8608L8.56431 13.8608L8.58145 13.8608L8.59857 13.8608L8.61569 13.8608L8.63279 13.8608L8.64989 13.8608L8.66697 13.8608L8.68404 13.8608L8.7011 13.8608L8.71815 13.8608L8.73519 13.8608L8.75221 13.8608L8.76922 13.8608L8.78623 13.8608L8.80321 13.8608L8.82019 13.8608L8.83715 13.8608L8.8541 13.8608L8.87104 13.8608L8.88797 13.8608L8.90488 13.8608L8.92178 13.8608L8.93866 13.8608L8.95553 13.8608L8.97239 13.8608L8.98923 13.8608L9.00606 13.8608L9.02288 13.8608L9.03968 13.8608L9.05646 13.8608L9.07324 13.8608L9.08999 13.8608L9.10673 13.8608L9.12346 13.8608L9.14017 13.8608L9.15686 13.8608L9.17354 13.8608L9.19021 13.8608L9.20685 13.8608L9.22349 13.8608L9.2401 13.8608L9.2567 13.8608L9.27328 13.8608L9.28985 13.8608L9.3064 13.8608L9.32293 13.8608L9.33944 13.8608L9.35594 13.8608L9.37242 13.8608L9.38888 13.8608L9.40533 13.8608L9.42175 13.8608L9.43816 13.8608L9.45455 13.8608L9.47092 13.8608L9.48727 13.8608L9.50361 13.8608L9.51992 13.8608L9.53622 13.8608L9.5525 13.8608L9.56875 13.8608L9.58499 13.8608L9.60121 13.8608L9.61741 13.8608L9.63359 13.8608L9.64975 13.8608L9.66588 13.8608L9.682 13.8608L9.6981 13.8608L9.71418 13.8608L9.73023 13.8608L9.74627 13.8608L9.76228 13.8608L9.77827 13.8608L9.79424 13.8608L9.81019 13.8608L9.82612 13.8608L9.84202 13.8608L9.85791 13.8608L9.87377 13.8608L9.88961 13.8608L9.90542 13.8608L9.92122 13.8608L9.93699 13.8608L9.95273 13.8608L9.96846 13.8608L9.98416 13.8608L9.99984 13.8608L10.0155 13.8608L10.0311 13.8608L10.0467 13.8608L10.0623 13.8608L10.0779 13.8608L10.0934 13.8608L10.1089 13.8608L10.1244 13.8608L10.1399 13.8608L10.1553 13.8608L10.1707 13.8608L10.1861 13.8608L10.2014 13.8608L10.2168 13.8608L10.2321 13.8608L10.2474 13.8608L10.2626 13.8608L10.2778 13.8608L10.293 13.8608L10.3082 13.8608L10.3234 13.8608L10.3385 13.8608L10.3536 13.8608L10.3687 13.8608L10.3837 13.8608L10.3987 13.8608L10.4137 13.8608L10.4287 13.8608L10.4436 13.8608L10.4585 13.8608L10.4734 13.8608L10.4882 13.8608L10.503 13.8608L10.5178 13.8608L10.5326 13.8608L10.5473 13.8608L10.562 13.8608L10.5767 13.8608L10.5913 13.8608L10.6059 13.8608L10.6205 13.8608L10.6351 13.8608L10.6496 13.8608L10.6641 13.8608L10.6785 13.8608L10.693 13.8608L10.7074 13.8608L10.7217 13.8608L10.7361 13.8608L10.7504 13.8608L10.7647 13.8608L10.7789 13.8608L10.7931 13.8608L10.8073 13.8608L10.8215 13.8608L10.8356 13.8608L10.8497 13.8608L10.8637 13.8608L10.8777 13.8608L10.8917 13.8608L10.9057 13.8608L10.9196 13.8608L10.9335 13.8608L10.9474 13.8608L10.9612 13.8608L10.975 13.8608L10.9887 13.8608L11.0024 13.8608L11.0161 13.8608L11.0298 13.8608L11.0434 13.8608L11.057 13.8608L11.0705 13.8608L11.0841 13.8608L11.0975 13.8608L11.111 13.8608L11.1244 13.8608L11.1378 13.8608L11.1511 13.8608L11.1644 13.8608L11.1777 13.8608L11.1909 13.8608L11.2041 13.8608L11.2173 13.8608L11.2304 13.8608L11.2435 13.8608L11.2565 13.8608L11.2695 13.8608L11.2825 13.8608L11.2954 13.8608L11.3083 13.8608L11.3212 13.8608L11.334 13.8608L11.3468 13.8608L11.3596 13.8608L11.3723 13.8608L11.3849 13.8608L11.3976 13.8608L11.4102 13.8608L11.4227 13.8608L11.4353 13.8608L11.4477 13.8608L11.4602 13.8608L11.4726 13.8608L11.4849 13.8608L11.4972 13.8608L11.5095 13.8608L11.5218 13.8608L11.534 13.8608L11.5461 13.8608L11.5582 13.8608L11.5703 13.8608L11.5824 13.8608L11.5944 13.8608L11.6063 13.8608L11.6182 13.8608L11.6301 13.8608L11.6419 13.8608L11.6537 13.8608L11.6655 13.8608L11.6772 13.8608L11.6888 13.8608L11.7005 13.8608L11.712 13.8608L11.7236 13.8608L11.7351 13.8608L11.7465 13.8608L11.7579 13.8608L11.7693 13.8608L11.7806 13.8608L11.7919 13.8608L11.8031 13.8608L11.8143 13.8608L11.8255 13.8608L11.8366 13.8608L11.8476 13.8608L11.8586 13.8608L11.8696 13.8608L11.8806 13.8608L11.8916 13.8608L11.9026 13.8608L11.9137 13.8608L11.9249 13.8608L11.9361 13.8608L11.9473 13.8608L11.9586 13.8608L11.9699 13.8608L11.9813 13.8608L11.9927 13.8608L12.0041 13.8608L12.0156 13.8608L12.0272 13.8608L12.0388 13.8608L12.0504 13.8608L12.062 13.8608L12.0737 13.8608L12.0855 13.8608L12.0973 13.8608L12.1091 13.8608L12.121 13.8608L12.1329 13.8608L12.1449 13.8608L12.1569 13.8608L12.1689 13.8608L12.181 13.8608L12.1931 13.8608L12.2052 13.8608L12.2175 13.8608L12.2297 13.8608L12.242 13.8608L12.2543 13.8608L12.2667 13.8608L12.2791 13.8608L12.2915 13.8608L12.304 13.8608L12.3165 13.8608L12.329 13.8608L12.3416 13.8608L12.3543 13.8608L12.3669 13.8608L12.3797 13.8608L12.3924 13.8608L12.4052 13.8608L12.418 13.8608L12.4309 13.8608L12.4438 13.8608L12.4567 13.8608L12.4697 13.8608L12.4827 13.8608L12.4957 13.8608L12.5088 13.8608L12.522 13.8608L12.5351 13.8608L12.5483 13.8608L12.5615 13.8608L12.5748 13.8608L12.5881 13.8608L12.6014 13.8608L12.6148 13.8608L12.6282 13.8608L12.6417 13.8608L12.6552 13.8608L12.6687 13.8608L12.6822 13.8608L12.6958 13.8608L12.7094 13.8608L12.7231 13.8608L12.7368 13.8608L12.7505 13.8608L12.7642 13.8608L12.778 13.8608L12.7919 13.8608L12.8057 13.8608L12.8196 13.8608L12.8335 13.8608L12.8475 13.8608L12.8615 13.8608L12.8755 13.8608L12.8895 13.8608L12.9036 13.8608L12.9178 13.8608L12.9319 13.8608L12.9461 13.8608L12.9603 13.8608L12.9745 13.8608L12.9888 13.8608L13.0031 13.8608L13.0175 13.8608L13.0318 13.8608L13.0462 13.8608L13.0607 13.8608L13.0751 13.8608L13.0896 13.8608L13.1042 13.8608L13.1187 13.8608L13.1333 13.8608L13.1479 13.8608L13.1625 13.8608L13.1772 13.8608L13.1919 13.8608L13.2066 13.8608L13.2214 13.8608L13.2362 13.8608L13.251 13.8608L13.2659 13.8608L13.2807 13.8608L13.2956 13.8608L13.3106 13.8608L13.3255 13.8608L13.3405 13.8608L13.3555 13.8608L13.3706 13.8608L13.3856 13.8608L13.4007 13.8608L13.4158 13.8608L13.431 13.8608L13.4462 13.8608L13.4614 13.8608L13.4766 13.8608L13.4919 13.8608L13.5071 13.8608L13.5224 13.8608L13.5378 13.8608L13.5531 13.8608L13.5685 13.8608L13.5839 13.8608L13.5994 13.8608L13.6148 13.8608L13.6303 13.8608L13.6458 13.8608L13.6613 13.8608L13.6769 13.8608L13.6925 13.8608L13.7081 13.8608L13.7237 13.8608L13.7394 13.8608L13.7551 13.8608L13.7708 13.8608L13.7865 13.8608L13.8022 13.8608L13.818 13.8608L13.8338 13.8608L13.8496 13.8608L13.8654 13.8608L13.8813 13.8608L13.8972 13.8608L13.9131 13.8608L13.929 13.8608L13.945 13.8608L13.9609 13.8608L13.9769 13.8608L13.993 13.8608L14.009 13.8608L14.025 13.8608L14.0411 13.8608L14.0572 13.8608L14.0733 13.8608L14.0895 13.8608L14.1056 13.8608L14.1218 13.8608L14.138 13.8608L14.1542 13.8608L14.1705 13.8608L14.1867 13.8608L14.203 13.8608L14.2193 13.8608L14.2356 13.8608L14.2519 13.8608L14.2683 13.8608L14.2847 13.8608L14.3011 13.8608L14.3175 13.8608L14.3339 13.8608L14.3503 13.8608L14.3668 13.8608L14.3833 13.8608L14.3998 13.8608L14.4163 13.8608L14.4328 13.8608L14.4494 13.8608L14.4659 13.8608L14.4825 13.8608L14.4991 13.8608L14.5157 13.8608L14.5324 13.8608L14.549 13.8608L14.5657 13.8608L14.5824 13.8608L14.599 13.8608L14.6158 13.8608L14.6325 13.8608L14.6492 13.8608L14.666 13.8608L14.6828 13.8608L14.6995 13.8608L14.7163 13.8608L14.7332 13.8608L14.75 13.8608L14.7668 13.8608L14.7837 13.8608L14.8006 13.8608L14.8174 13.8608L14.8343 13.8608L14.8512 13.8608L14.8682 13.8608L14.8851 13.8608L14.9021 13.8608L14.919 13.8608L14.936 13.8608L14.953 13.8608L14.97 13.8608L14.987 13.8608L15.004 13.8608L15.0211 13.8608L15.0381 13.8608L15.0552 13.8608L15.0722 13.8608L15.0893 13.8608L15.1064 13.8608L15.1235 13.8608L15.1406 13.8608L15.1578 13.8608L15.1749 13.8608L15.1921 13.8608L15.2092 13.8608L15.2264 13.8608L15.2436 13.8608L15.2607 13.8608L15.2779 13.8608L15.2951 13.8608L15.3124 13.8608L15.3296 13.8608L15.3468 13.8608L15.3641 13.8608L15.3813 13.8608L15.3986 13.8608L15.4158 13.8608L15.4331 13.8608L15.4504 13.8608L15.4677 13.8608L15.485 13.8608L15.5023 13.8608L15.5196 13.8608L15.5369 13.8608L15.5542 13.8608L15.5716 13.8608L15.5889 13.8608L15.6063 13.8608L15.6236 13.8608L15.641 13.8608L15.6583 13.8608L15.6757 13.8608L15.6931 13.8608L15.7105 13.8608L15.7279 13.8608L15.7453 13.8608L15.7627 13.8608L15.7801 13.8608L15.7975 13.8608L15.8149 13.8608L15.8323 13.8608L15.8497 13.8608L15.8672 13.8608L15.8846 13.8608L15.902 13.8608L15.9195 13.8608L15.9369 13.8608L15.9544 13.8608L15.9718 13.8608L15.9893 13.8608L16.0067 13.8608L16.0242 13.8608L16.0417 13.8608L16.0591 13.8608L16.0766 13.8608L16.0941 13.8608L16.1115 13.8608L16.129 13.8608L16.1465 13.8608L16.164 13.8608L16.1815 13.8608L16.1989 13.8608L16.2164 13.8608L16.2339 13.8608L16.2514 13.8608L16.2689 13.8608L16.2864 13.8608L16.3039 13.8608L16.3213 13.8608L16.3388 13.8608L16.3563 13.8608L16.3738 13.8608L16.3913 13.8608L16.4088 13.8608L16.4263 13.8608L16.4438 13.8608L16.4612 13.8608L16.4787 13.8608L16.4962 13.8608L16.5137 13.8608L16.5312 13.8608L16.5486 13.8608L16.5661 13.8608L16.5836 13.8608L16.6011 13.8608L16.6185 13.8608L16.636 13.8608L16.6535 13.8608L16.6709 13.8608L16.6884 13.8608L16.7058 13.8608L16.7233 13.8608L16.7407 13.8608L16.7582 13.8608L16.7756 13.8608L16.7931 13.8608L16.8105 13.8608L16.8279 13.8608L16.8454 13.8608L16.8628 13.8608L16.8802 13.8608L16.8976 13.8608L16.915 13.8608L16.9324 13.8608L16.9498 13.8608L16.9672 13.8608L16.9846 13.8608L17.002 13.8608L17.0194 13.8608L17.0367 13.8608L17.0541 13.8608L17.0715 13.8608L17.0888 13.8608L17.1062 13.8608L17.1235 13.8608L17.1408 13.8608L17.1581 13.8608L17.1755 13.8608L17.1928 13.8608L17.2101 13.8608L17.2274 13.8608L17.2447 13.8608L17.2619 13.8608L17.2792 13.8608L17.2965 13.8608L17.3137 13.8608L17.331 13.8608L17.3482 13.8608L17.3654 13.8608L17.3826 13.8608L17.3999 13.8608L17.4171 13.8608L17.4342 13.8608L17.4514 13.8608L17.4686 13.8608L17.4858 13.8608L17.5029 13.8608L17.52 13.8608L17.5372 13.8608L17.5543 13.8608L17.5714 13.8608L17.5885 13.8608L17.6056 13.8608L17.6227 13.8608L17.6397 13.8608L17.6568 13.8608L17.6738 13.8608L17.6909 13.8608L17.7079 13.8608L17.7249 13.8608L17.7419 13.8608L17.7589 13.8608L17.7758 13.8608L17.7928 13.8608L17.8097 13.8608L17.8267 13.8608L17.8436 13.8608L17.8605 13.8608L17.8774 13.8608L17.8943 13.8608L17.9111 13.8608L17.928 13.8608L17.9448 13.8608L17.9616 13.8608L17.9784 13.8608L17.9952 13.8608L18.012 13.8608L18.0288 13.8608L18.0455 13.8608L18.0622 13.8608L18.079 13.8608L18.0957 13.8608L18.1123 13.8608L18.129 13.8608L18.1457 13.8608L18.1623 13.8608L18.1789 13.8608L18.1955 13.8608L18.2121 13.8608L18.2287 13.8608L18.2453 13.8608L18.2618 13.8608L18.2783 13.8608L18.2948 13.8608L18.3113 13.8608L18.3278 13.8608L18.3442 13.8608L18.3607 13.8608L18.3771 13.8608L18.3935 13.8608L18.4099 13.8608L18.4262 13.8608L18.4426 13.8608L18.4589 13.8608L18.4752 13.8608L18.4915 13.8608L18.5077 13.8608L18.524 13.8608L18.5402 13.8608L18.5564 13.8608L18.5726 13.8608L18.5888 13.8608L18.6049 13.8608L18.6211 13.8608L18.6372 13.8608L18.6533 13.8608L18.6693 13.8608L18.6854 13.8608L18.7014 13.8608L18.7174 13.8608L18.7334 13.8608L18.7493 13.8608L18.7653 13.8608L18.7812 13.8608L18.7971 13.8608L18.8129 13.8608L18.8288 13.8608L18.8446 13.8608L18.8604 13.8608L18.8762 13.8608L18.892 13.8608L18.9077 13.8608L18.9234 13.8608L18.9391 13.8608L18.9548 13.8608L18.9704 13.8608L18.986 13.8608L19.0016 13.8608L19.0172 13.8608L19.0327 13.8608L19.0482 13.8608L19.0637 13.8608L19.0792 13.8608L19.0947 13.8608L19.1101 13.8608L19.1255 13.8608L19.1408 13.8608L19.1562 13.8608L19.1715 13.8608L19.1868 13.8608L19.2021 13.8608L19.2173 13.8608L19.2325 13.8608L19.2477 13.8608L19.2629 13.8608L19.278 13.8608L19.2931 13.8608L19.3082 13.8608L19.3232 13.8608L19.3383 13.8608L19.3533 13.8608L19.3682 13.8608L19.3832 13.8608L19.3981 13.8608L19.413 13.8608L19.4278 13.8608L19.4427 13.8608L19.4575 13.8608L19.4722 13.8608L19.487 13.8608L19.5017 13.8608L19.5164 13.8608L19.531 13.8608L19.5457 13.8608L19.5603 13.8608L19.5748 13.8608L19.5894 13.8608L19.6039 13.8608L19.6183 13.8608L19.6328 13.8608L19.6472 13.8608L19.6616 13.8608L19.6759 13.8608L19.6903 13.8608L19.7046 13.8608L19.7188 13.8608L19.733 13.8608L19.7472 13.8608L19.7614 13.8608L19.7755 13.8608L19.7896 13.8608L19.8037 13.8608L19.8177 13.8608L19.8317 13.8608L19.8457 13.8608L19.8597 13.8608L19.8736 13.8608L19.8874 13.8608L19.9013 13.8608L19.9151 13.8608C20.4844 13.8608 20.8855 14.3147 20.854 14.7986C20.5858 18.9169 19.4465 20.6409 18.078 21.4595C17.3547 21.8922 16.4748 22.1321 15.4159 22.2563C14.35 22.3813 13.176 22.3826 11.8696 22.3826C10.5633 22.3826 9.38917 22.3813 8.32335 22.2563C7.26446 22.1321 6.38448 21.8922 5.66123 21.4595C4.29276 20.6409 3.15346 18.9169 2.88524 14.7986Z" stroke="#C4C4C4" stroke-width="2"/>
<line x1="11.9348" y1="8.07837" x2="11.9348" y2="13.0318" stroke="#C4C4C4" stroke-width="3"/>
</svg>
