<svg width="26" height="24" viewBox="0 0 26 24" fill="none" xmlns="http://www.w3.org/2000/svg">
<path fill-rule="evenodd" clip-rule="evenodd" d="M11.115 22.2736L13 24L14.885 22.2866L14.9363 22.2397C21.6026 16.1451 26 12.1247 26 7.19346C26 3.16512 22.854 0 18.85 0C16.588 0 14.417 1.0594 13 2.73351C11.583 1.0594 9.412 0 7.15 0C3.146 0 0 3.16512 0 7.19346C0 12.1333 4.41275 16.1591 11.0985 22.2585L11.115 22.2736ZM20.94 12.6432C22.7026 10.4738 23.4 8.80618 23.4 7.19346C23.4 4.60979 21.4181 2.6158 18.85 2.6158C17.3752 2.6158 15.9192 3.31929 14.9795 4.42944L13 6.76814L11.0205 4.42944C10.0808 3.31929 8.62476 2.6158 7.15 2.6158C4.58194 2.6158 2.6 4.60979 2.6 7.19346C2.6 8.80615 3.29744 10.4736 5.05941 12.6409C7.01363 15.0446 9.31004 17.1209 11.6012 19.1925C12.0709 19.6171 12.5404 20.0416 13.0066 20.4687C13.3732 20.1355 13.7421 19.8027 14.1117 19.4693C16.4982 17.3162 18.915 15.1357 20.94 12.6432Z" fill="#101210"/>
<path fill-rule="evenodd" clip-rule="evenodd" d="M3.30139 2.03813C6.04183 -0.280709 10.1432 0.0610702 12.462 2.80151L13 3.43732L13.538 2.80151C15.8568 0.0610702 19.9582 -0.280709 22.6986 2.03813C25.4391 4.35696 25.7809 8.45832 23.462 11.1988L13 23.563L2.538 11.1988C0.219169 8.45832 0.560948 4.35696 3.30139 2.03813Z" fill="#101210"/>
</svg>
