<svg width="31" height="27" viewBox="0 0 31 27" fill="none" xmlns="http://www.w3.org/2000/svg">
<path fill-rule="evenodd" clip-rule="evenodd" d="M14.115 25.2736L16 27L17.885 25.2866L17.9363 25.2397C24.6026 19.1451 29 15.1247 29 10.1935C29 6.16512 25.854 3 21.85 3C19.588 3 17.417 4.0594 16 5.73351C14.583 4.0594 12.412 3 10.15 3C6.146 3 3 6.16512 3 10.1935C3 15.1333 7.41275 19.1591 14.0985 25.2585L14.115 25.2736ZM23.94 15.6432C25.7026 13.4738 26.4 11.8062 26.4 10.1935C26.4 7.60979 24.4181 5.6158 21.85 5.6158C20.3752 5.6158 18.9192 6.31929 17.9795 7.42944L16 9.76814L14.0205 7.42944C13.0808 6.31929 11.6248 5.6158 10.15 5.6158C7.58194 5.6158 5.6 7.60979 5.6 10.1935C5.6 11.8061 6.29744 13.4736 8.05941 15.6409C10.0136 18.0446 12.31 20.1209 14.6012 22.1925C15.0709 22.6171 15.5404 23.0416 16.0066 23.4687C16.3732 23.1355 16.7421 22.8027 17.1117 22.4693C19.4982 20.3162 21.915 18.1357 23.94 15.6432Z" fill="#101210"/>
</svg>
