<svg width="30" height="30" viewBox="0 0 30 30" fill="none" xmlns="http://www.w3.org/2000/svg">
<mask id="mask0_2180_1618" style="mask-type:luminance" maskUnits="userSpaceOnUse" x="3" y="4" width="24" height="24">
<path d="M13.2475 25.1876L5.22166 17.6683L10.331 16.7911L10.3695 8.53826L17.8808 11.1548L20.3213 6.39568L24.5722 16.7331L13.2475 25.1876Z" fill="white"/>
<path fill-rule="evenodd" clip-rule="evenodd" d="M9.21385 6.85697C9.74151 6.46305 10.4169 6.35542 11.0271 6.568L16.9248 8.62242L18.5583 5.43697C18.922 4.72775 19.6431 4.29302 20.4126 4.31912C21.182 4.34522 21.8632 4.82751 22.1641 5.55927L26.4156 15.8982C26.7833 16.7924 26.4974 17.8396 25.7288 18.4134L14.4025 26.869C13.6339 27.4428 12.5904 27.3881 11.8961 26.7377L3.86922 19.2173C3.3011 18.685 3.08197 17.8578 3.30576 17.0902C3.52955 16.3226 4.15652 15.7509 4.91792 15.6201L8.33779 15.033L8.36804 8.55314C8.37117 7.88262 8.68619 7.2509 9.21385 6.85697ZM12.3564 11.4279L12.3314 16.7752C12.3266 17.7968 11.6063 18.6723 10.633 18.8394L9.65405 19.0075L13.409 22.5255L22.1016 16.0361L20.1128 11.1995L19.6452 12.1114C19.1803 13.0179 18.153 13.4471 17.2232 13.1232L12.3564 11.4279Z" fill="white"/>
<path d="M17.0536 18.2563C17.4544 17.9571 17.7261 17.5065 17.8092 17.0035C17.8922 16.5005 17.7797 15.9865 17.4963 15.5743C17.213 15.1622 16.7821 14.8858 16.2984 14.806C15.8147 14.7261 15.3178 14.8493 14.917 15.1485C14.5163 15.4477 14.2445 15.8984 14.1615 16.4013C14.0784 16.9043 14.191 17.4184 14.4743 17.8305C14.7576 18.2426 15.1885 18.519 15.6723 18.5989C16.156 18.6787 16.6529 18.5555 17.0536 18.2563Z" fill="black"/>
<path fill-rule="evenodd" clip-rule="evenodd" d="M12.1882 16.0756C12.361 15.0284 12.9269 14.0902 13.7612 13.4673C14.5955 12.8445 15.63 12.5879 16.637 12.7542C17.6441 12.9204 18.5412 13.4959 19.1311 14.3538C19.721 15.2118 19.9552 16.2821 19.7824 17.3293C19.6095 18.3764 19.0437 19.3146 18.2094 19.9375C17.375 20.5604 16.3405 20.8169 15.3335 20.6506C14.3264 20.4844 13.4293 19.909 12.8394 19.051C12.2496 18.193 12.0153 17.1227 12.1882 16.0756ZM16.0728 16.8297C16.1056 16.8052 16.1279 16.7683 16.1347 16.7271C16.1415 16.6859 16.1323 16.6438 16.109 16.61C16.0858 16.5763 16.0505 16.5536 16.0109 16.5471C15.9713 16.5405 15.9306 16.5506 15.8978 16.5751C15.8649 16.5996 15.8427 16.6366 15.8359 16.6778C15.8291 16.719 15.8383 16.7611 15.8615 16.7948C15.8847 16.8286 15.92 16.8512 15.9596 16.8578C15.9992 16.8643 16.0399 16.8542 16.0728 16.8297Z" fill="black"/>
</mask>
<g mask="url(#mask0_2180_1618)">
<path d="M-0.836182 12.189L17.2909 -1.34256L30.1156 17.3096L11.9885 30.8411L-0.836182 12.189Z" fill="#E2E53F"/>
</g>
</svg>
