<svg width="13" height="13" viewBox="0 0 13 13" fill="none" xmlns="http://www.w3.org/2000/svg">
<path d="M6.36363 1.92538C6.29691 2.01234 5.89008 2.56208 6.03657 3.23857C6.20191 4.00055 6.99165 4.56503 7.77705 4.4427C8.43045 4.34101 8.88515 3.79348 9.02657 3.257C9.26008 2.37196 8.6103 1.62767 8.4435 1.45081C7.41227 0.361637 5.60942 0.663774 5.61015 0.604084C5.61087 0.532602 8.16865 -0.317067 10.3036 0.999073C12.6779 2.46333 13.3451 5.87675 12.5162 8.28059C11.448 11.3779 7.68204 13.4177 3.61005 12.5422C4.03211 12.5017 7.50582 12.1118 9.33115 9.04256C10.3696 7.2968 10.358 5.55177 10.3087 4.80895C9.84024 5.86865 9.04542 7.29753 7.70162 8.65642C4.81315 11.5798 1.32929 12.2135 0 12.3823C0.461952 12.2246 1.14582 11.9107 1.6201 11.2489C2.76156 9.65421 1.2517 8.04109 2.14732 5.53408C2.22854 5.30637 3.00015 3.243 5.00243 2.32037C5.5369 2.07424 6.02279 1.97255 6.36363 1.92538Z" fill="#6CAA06"/>
</svg>
