<svg width="62" height="29" viewBox="0 0 62 29" fill="none" xmlns="http://www.w3.org/2000/svg">
<rect width="62" height="29" rx="14.5" fill="#8DD40E"/>
<path d="M14.9377 20.244V8.148H18.3217V17.814H22.9117V20.244H14.9377ZM25.7564 20.244L21.6344 8.148H25.0904L27.6464 16.32H27.7364L30.2744 8.148H33.3704L29.2484 20.244H25.7564ZM34.0651 20.712V17.994H37.0171V20.712H34.0651ZM39.2127 20.262V18.354L40.8507 16.572C41.5947 15.78 42.1587 15.162 42.5427 14.718C42.9267 14.262 43.3047 13.734 43.6767 13.134C44.0487 12.534 44.2347 12.036 44.2347 11.64C44.2347 11.016 44.0427 10.59 43.6587 10.362C43.2867 10.134 42.7227 10.02 41.9667 10.02C41.2947 10.02 40.5147 10.212 39.6267 10.596L39.3567 8.274C40.3047 7.794 41.5467 7.554 43.0827 7.554C46.1427 7.554 47.6727 8.748 47.6727 11.136C47.6727 11.388 47.6427 11.652 47.5827 11.928C47.5227 12.192 47.4327 12.462 47.3127 12.738C47.1927 13.002 47.0667 13.26 46.9347 13.512C46.8147 13.752 46.6527 14.01 46.4487 14.286C46.2567 14.55 46.0947 14.778 45.9627 14.97C45.8307 15.15 45.6507 15.366 45.4227 15.618C45.2067 15.87 45.0507 16.05 44.9547 16.158C44.8587 16.266 44.7147 16.422 44.5227 16.626C44.3427 16.818 44.2467 16.92 44.2347 16.932L43.4067 17.814H47.5287V20.262H39.2127Z" fill="white"/>
</svg>
