<svg width="62" height="29" viewBox="0 0 62 29" fill="none" xmlns="http://www.w3.org/2000/svg">
<rect width="62" height="29" rx="14.5" fill="#6CAA06"/>
<path d="M14.7004 20.244V8.148H18.0844V17.814H22.6744V20.244H14.7004ZM25.5191 20.244L21.3971 8.148H24.8531L27.4091 16.32H27.4991L30.0371 8.148H33.1331L29.0111 20.244H25.5191ZM33.8278 20.712V17.994H36.7798V20.712H33.8278ZM42.7374 20.46C41.9814 20.46 41.2314 20.376 40.4874 20.208C39.7434 20.04 39.1794 19.836 38.7954 19.596L39.2454 17.328C39.5214 17.496 39.9414 17.64 40.5054 17.76C41.0814 17.88 41.6094 17.94 42.0894 17.94C43.4694 17.94 44.1594 17.4 44.1594 16.32C44.1594 15.84 43.9854 15.51 43.6374 15.33C43.2894 15.138 42.7794 15.024 42.1074 14.988L40.8294 14.934V12.756L41.9274 12.72C42.5634 12.672 43.0734 12.534 43.4574 12.306C43.8534 12.066 44.0514 11.736 44.0514 11.316C44.0514 10.476 43.3854 10.056 42.0534 10.056C41.2014 10.056 40.4094 10.182 39.6774 10.434L39.3534 8.094C40.1574 7.734 41.3874 7.554 43.0434 7.554C44.3154 7.554 45.3414 7.824 46.1214 8.364C46.9134 8.892 47.3094 9.666 47.3094 10.686C47.3094 12.15 46.6074 13.14 45.2034 13.656C46.8474 13.944 47.6694 14.94 47.6694 16.644C47.6694 17.856 47.2254 18.798 46.3374 19.47C45.4614 20.13 44.2614 20.46 42.7374 20.46Z" fill="white"/>
</svg>
