<svg width="62" height="29" viewBox="0 0 62 29" fill="none" xmlns="http://www.w3.org/2000/svg">
<rect width="62" height="29" rx="14.5" fill="#42650F"/>
<path d="M14.9817 20.244V8.148H18.3657V17.814H22.9557V20.244H14.9817ZM25.8004 20.244L21.6784 8.148H25.1344L27.6904 16.32H27.7804L30.3184 8.148H33.4144L29.2924 20.244H25.8004ZM34.1091 20.712V17.994H37.0611V20.712H34.1091ZM42.8387 20.424C41.4107 20.424 40.1807 20.166 39.1487 19.65L39.7067 17.202C40.5107 17.586 41.2247 17.778 41.8487 17.778C43.4327 17.778 44.2247 17.232 44.2247 16.14C44.2247 15 43.4927 14.43 42.0287 14.43C41.7047 14.43 41.2907 14.508 40.7867 14.664C40.2947 14.82 39.8867 14.988 39.5627 15.168L40.0307 7.734H46.9247V10.182H42.4427L42.2987 12.252C42.6587 12.132 43.0787 12.072 43.5587 12.072C44.8427 12.072 45.8447 12.426 46.5647 13.134C47.2847 13.842 47.6447 14.868 47.6447 16.212C47.6447 17.46 47.2127 18.474 46.3487 19.254C45.4847 20.034 44.3147 20.424 42.8387 20.424Z" fill="white"/>
</svg>
