<svg width="32" height="32" viewBox="0 0 32 32" fill="none" xmlns="http://www.w3.org/2000/svg">
<path d="M21.3125 22.6875V14.6875C21.3125 12.9792 20.8333 11.5625 19.875 10.4375C18.9167 9.27083 17.625 8.6875 16 8.6875C14.375 8.6875 13.0833 9.27083 12.125 10.4375C11.1667 11.5625 10.6875 12.9792 10.6875 14.6875V22.6875H21.3125ZM24 21.3125L26.6875 24V25.3125H5.3125V24L8 21.3125V14.6875C8 12.6042 8.52083 10.7917 9.5625 9.25C10.6458 7.70833 12.125 6.70833 14 6.25V5.3125C14 4.77083 14.1875 4.3125 14.5625 3.9375C14.9375 3.52083 15.4167 3.3125 16 3.3125C16.5833 3.3125 17.0625 3.52083 17.4375 3.9375C17.8125 4.3125 18 4.77083 18 5.3125V6.25C19.875 6.70833 21.3333 7.70833 22.375 9.25C23.4583 10.7917 24 12.6042 24 14.6875V21.3125ZM17.875 28.5625C17.3333 29.0625 16.7083 29.3125 16 29.3125C15.2917 29.3125 14.6667 29.0625 14.125 28.5625C13.5833 28.0208 13.3125 27.3958 13.3125 26.6875H18.6875C18.6875 27.3958 18.4167 28.0208 17.875 28.5625Z" fill="#101210"/>
</svg>
