<svg width="21" height="22" viewBox="0 0 21 22" fill="none" xmlns="http://www.w3.org/2000/svg">
<path d="M19.087 20.1829C19.087 20.5702 18.8017 20.9238 18.1961 20.9238H18.1823H18.1685H18.1547H18.1409H18.127H18.1131H18.0991H18.0851H18.0711H18.057H18.0429H18.0288H18.0146H18.0004H17.9862H17.9719H17.9577H17.9433H17.929H17.9146H17.9001H17.8857H17.8712H17.8566H17.8421H17.8275H17.8129H17.7982H17.7835H17.7688H17.7541H17.7393H17.7245H17.7096H17.6948H17.6799H17.6649H17.65H17.635H17.62H17.6049H17.5898H17.5747H17.5596H17.5444H17.5292H17.514H17.4988H17.4835H17.4682H17.4528H17.4375H17.4221H17.4066H17.3912H17.3757H17.3602H17.3447H17.3291H17.3136H17.298H17.2823H17.2667H17.251H17.2353H17.2195H17.2038H17.188H17.1722H17.1563H17.1405H17.1246H17.1087H17.0927H17.0768H17.0608H17.0448H17.0288H17.0127H16.9966H16.9805H16.9644H16.9483H16.9321H16.9159H16.8997H16.8834H16.8672H16.8509H16.8346H16.8183H16.8019H16.7856H16.7692H16.7528H16.7364H16.7199H16.7034H16.6869H16.6704H16.6539H16.6374H16.6208H16.6042H16.5876H16.571H16.5543H16.5377H16.521H16.5043H16.4876H16.4708H16.4541H16.4373H16.4205H16.4037H16.3869H16.37H16.3532H16.3363H16.3194H16.3025H16.2856H16.2686H16.2517H16.2347H16.2177H16.2007H16.1837H16.1666H16.1496H16.1325H16.1154H16.0983H16.0812H16.0641H16.0469H16.0298H16.0126H15.9954H15.9783H15.961H15.9438H15.9266H15.9093H15.8921H15.8748H15.8575H15.8402H15.8229H15.8056H15.7883H15.7709H15.7536H15.7362H15.7188H15.7014H15.684H15.6666H15.6492H15.6318H15.6143H15.5969H15.5794H15.562H15.5445H15.527H15.5095H15.492H15.4745H15.4569H15.4394H15.4219H15.4043H15.3868H15.3692H15.3516H15.334H15.3165H15.2989H15.2813H15.2636H15.246H15.2284H15.2108H15.1931H15.1755H15.1579H15.1402H15.1225H15.1049H15.0872H15.0695H15.0519H15.0342H15.0165H14.9988H14.9811H14.9634H14.9457H14.928H14.9102H14.8925H14.8748H14.8571H14.8394H14.8216H14.8039H14.7862H14.7684H14.7507H14.7329H14.7152H14.6974H14.6797H14.6619H14.6442H14.6264H14.6087H14.5909H14.5732H14.5554H14.5377H14.5199H14.5022H14.4844H14.4666H14.4489H14.4311H14.4134H14.3956H14.3779H14.3601H14.3424H14.3246H14.3069H14.2891H14.2714H14.2537H14.2359H14.2182H14.2005H14.1827H14.165H14.1473H14.1296H14.1119H14.0941H14.0764H14.0587H14.041H14.0233H14.0056H13.988H13.9703H13.9526H13.9349H13.9173H13.8996H13.8819H13.8643H13.8466H13.829H13.8114H13.7937H13.7761H13.7585H13.7409H13.7233H13.7057H13.6881H13.6706H13.653H13.6354H13.6179H13.6003H13.5828H13.5653H13.5478H13.5302H13.5127H13.4952H13.4778H13.4603H13.4428H13.4254H13.4079H13.3905H13.3731H13.3557H13.3383H13.3209H13.3035H13.2861H13.2687H13.2514H13.2341H13.2167H13.1994H13.1821H13.1648H13.1476H13.1303H13.113H13.0958H13.0786H13.0614H13.0442H13.027H13.0098H12.9927H12.9755H12.9584H12.9413H12.9242H12.9071H12.89H12.8729H12.8559H12.8389H12.8219H12.8049H12.7879H12.7709H12.754H12.737H12.7201H12.7032H12.6863H12.6695H12.6526H12.6358H12.619H12.6022H12.5854H12.5686H12.5519H12.5352H12.5185H12.5018H12.4851H12.4684H12.4518H12.4352H12.4186H12.402H12.3855H12.3689H12.3524H12.3359H12.3194H12.303H12.2866H12.2701H12.2537H12.2374H12.221H12.2047H12.1884H12.1721H12.1558H12.1396H12.1234H12.1072H12.091H12.0748H12.0587H12.0426H12.0265H12.0104H11.9944H11.9784H11.9624H11.9464H11.9305H11.9146H11.8987H11.8828H11.8669H11.8511H11.8353H11.8196H11.8038H11.7881H11.7724H11.7567H11.7411H11.7255H11.7099H11.6943H11.6788H11.6633H11.6478H11.6323H11.6169H11.6015H11.5861H11.5708H11.5554H11.5402H11.5249H11.5097H11.4945H11.4793H11.4641H11.449H11.4339H11.4189H11.4038H11.3888H11.3738H11.3589H11.344H11.3291H11.3143H11.2994H11.2846H11.2699H11.2552H11.2405H11.2258H11.2112H11.1966H11.182H11.1675H11.1529H11.1385H11.124H11.1096H11.0952H11.0809H11.0666H11.0523H11.0381H11.0239H11.0097H10.9955H10.9814H10.9674H10.9533H10.9393H10.9254H10.9114H10.8975H10.8837H10.8698H10.856H10.8423H10.8286H10.8149H10.8012H10.7876H10.774H10.7605H10.747H10.7335H10.7201H10.7067H10.6934H10.68H10.6668H10.6535H10.6403H10.6272H10.614H10.6009H10.5879H10.5749H10.5619H10.549H10.5361H10.5232H10.5104H10.4977H10.4849H10.4722H10.4596H10.447H10.4344H10.4219H10.4094H10.3969H10.3845H10.3722H10.3598H10.3476H10.3353H10.3231H10.311H10.2989H10.2868H10.2748H10.2628H10.2508H10.239H10.2271H10.2153H10.2035H10.1918H10.1801H10.1685H10.1569H10.1454H10.1339H10.1224H10.111H10.0996H10.0883H10.077H10.0658H10.0546H10.0435H10.0323H10.0212H10.0099H9.99866H9.98734H9.97597H9.96456H9.9531H9.9416H9.93006H9.91847H9.90684H9.89516H9.88344H9.87167H9.85986H9.84801H9.83611H9.82417H9.81218H9.80016H9.78809H9.77598H9.76382H9.75163H9.73939H9.72711H9.71479H9.70242H9.69002H9.67757H9.66508H9.65255H9.63998H9.62737H9.61472H9.60203H9.5893H9.57652H9.56371H9.55086H9.53797H9.52504H9.51207H9.49906H9.48601H9.47293H9.4598H9.44664H9.43344H9.4202H9.40692H9.3936H9.38025H9.36686H9.35343H9.33996H9.32646H9.31292H9.29934H9.28573H9.27208H9.2584H9.24468H9.23092H9.21713H9.2033H9.18943H9.17553H9.1616H9.14763H9.13363H9.11959H9.10552H9.09141H9.07727H9.06309H9.04888H9.03464H9.02036H9.00605H8.99171H8.97733H8.96293H8.94849H8.93401H8.91951H8.90497H8.8904H8.87579H8.86116H8.84649H8.8318H8.81707H8.80231H8.78752H8.7727H8.75785H8.74296H8.72805H8.71311H8.69814H8.68314H8.6681H8.65304H8.63795H8.62283H8.60768H8.59251H8.5773H8.56206H8.5468H8.53151H8.51619H8.50084H8.48547H8.47007H8.45464H8.43918H8.42369H8.40818H8.39264H8.37708H8.36149H8.34587H8.33023H8.31456H8.29887H8.28314H8.2674H8.25163H8.23583H8.22001H8.20416H8.18829H8.1724H8.15648H8.14053H8.12456H8.10857H8.09256H8.07652H8.06045H8.04437H8.02826H8.01213H7.99597H7.9798H7.9636H7.94737H7.93113H7.91486H7.89858H7.88227H7.86594H7.84959H7.83321H7.81682H7.8004H7.78397H7.76751H7.75103H7.73454H7.71802H7.70149H7.68493H7.66835H7.65176H7.63514H7.61851H7.60186H7.58519H7.5685H7.55179H7.53506H7.51832H7.50156H7.48478H7.46798H7.45116H7.43433H7.41748H7.40062H7.38373H7.36683H7.34992H7.33298H7.31604H7.29907H7.28209H7.26509H7.24808H7.23105H7.21401H7.19695H7.17988H7.16279H7.14569H7.12858H7.11145H7.0943H7.07714H7.05997H7.04279H7.02559H7.00837H6.99115H6.97391H6.95666H6.93939H6.92212H6.90483H6.88753H6.87022H6.85289H6.83555H6.81821H6.80085H6.78348H6.7661H6.7487H6.7313H6.71389H6.69646H6.67903H6.66158H6.64413H6.62667H6.60919H6.59171H6.57422H6.55671H6.5392H6.52169H6.50416H6.48662H6.46908H6.45152H6.43396H6.41639H6.39882H6.38123H6.36364H6.34605H6.32844H6.31083H6.29321H6.27558H6.25795H6.24031H6.22267H6.20502H6.18736H6.1697H6.15204H6.13436H6.11669H6.099H6.08132H6.06363H6.04593H6.02823H6.01053H5.99282H5.97511H5.95739H5.93967H5.92195H5.90422H5.88649H5.86876H5.85103H5.83329H5.81555H5.79781H5.78007H5.76232H5.74457H5.72682H5.70907H5.69132H5.67357H5.65582H5.63806H5.62031H5.60255H5.5848H5.56704H5.54929H5.53153H5.51377H5.49602H5.47827H5.46051H5.44276H5.42501H5.40726H5.38951H5.37177H5.35402H5.33628H5.31854H5.3008H5.28306H5.26533H5.2476H5.22987H5.21215H5.19443H5.17671H5.15899H5.14128H5.12358H5.10587H5.08817H5.07048H5.05279H5.0351H5.01742H4.99975H4.98208H4.96441H4.94676H4.9291H4.91145H4.89381H4.87618H4.85855H4.84092H4.82331H4.8057H4.78809H4.7705H4.75291H4.73533H4.71776H4.70019H4.68263H4.66508H4.64754H4.63001H4.61248H4.59497H4.57746H4.55996H4.54247H4.52499H4.50752H4.49006H4.47261H4.45517H4.43774H4.42032H4.40291H4.38551H4.36812H4.35075H4.33338H4.31603H4.29868H4.28135H4.26403H4.24672H4.22942H4.21214H4.19487H4.17761H4.16036H4.14313H4.12591H4.1087H4.09151H4.07433H4.05716H4.04001H4.02287H4.00574H3.98863H3.97153H3.95445H3.93739H3.92033H3.9033H3.88628H3.86927H3.85228H3.8353H3.81835H3.8014H3.78448H3.76757H3.75067H3.73379H3.71693H3.70009H3.68327H3.66646H3.64967H3.63289H3.61614H3.5994H3.58268H3.56598H3.5493H3.53263H3.51599H3.49936H3.48275H3.46617H3.4496H3.43305H3.41652H3.40001H3.38352H3.36705H3.3506H3.33418H3.31777H3.30138H3.28502H3.26867H3.25235H3.23605H3.21977H3.20351H3.18728H3.17106H3.15487H3.1387H3.12256H3.10643H3.09033H3.07426H3.0582H3.04217H3.02616H3.01018H2.99422H2.97829H2.96238H2.94649H2.93063H2.91479H2.89898H2.88319H2.86743H2.85169H2.83598H2.8203H2.80464H2.789H2.77339H2.75781H2.74226H2.72673H2.71123H2.69576H2.68031H2.66489H2.6495H2.63413H2.61879H2.60349H2.58821H2.57295H2.55773H2.54253H2.52737H2.51223H2.49712H2.48204H2.46699H2.45197H2.43698H2.42202H2.40708H2.39218H2.37731H2.36247H2.34766H2.33288H2.31814H2.30342H2.28873H2.27408H2.25946H2.24487H2.23031H2.21578H2.20129H2.18683H2.1724H2.158H2.14364H2.12931H2.11501H2.10075H2.08651H2.07232H2.05816H2.04403H2.02993H2.01587H2.00185H1.98786H1.9739H1.95998H1.94609H1.93224H1.91843H1.90465H1.8909C1.28521 20.9238 1 20.5702 1 20.1829C1 17.9529 1.60566 16.0678 2.94333 14.7366C4.27999 13.4065 6.49949 12.4783 10.0435 12.4783C13.3764 12.4783 15.6103 13.3991 17.0072 14.7473C18.4031 16.0946 19.087 17.9878 19.087 20.1829Z" fill="#101210" stroke="#101210" stroke-width="2"/>
<rect x="5.78259" y="1" width="8.52174" height="8.52174" rx="4.26087" fill="#101210" stroke="#101210" stroke-width="2"/>
</svg>
