<svg width="358" height="55" viewBox="0 0 358 55" fill="none" xmlns="http://www.w3.org/2000/svg">
<rect width="358" height="55" rx="20" transform="matrix(1 0 0 -1 0 55)" fill="#8DD40E"/>
<path d="M141.96 17.82C141.96 20.3933 141.753 22.82 141.34 25.1H143.7V26.96H136.78V34.58H134.44V26.96H127.6V25.1H131.52C131.973 23.26 132.2 21.4467 132.2 19.66H128.86V17.82H134.56C134.56 19.94 134.287 22.3667 133.74 25.1H139.08C139.44 23.5533 139.62 21.74 139.62 19.66H135.88V17.82H141.96ZM159.245 34.58H156.905V16.76H159.245V34.58ZM151.425 28.18V20.26H147.665V28.18H151.425ZM153.785 18.4V30.04H145.325V18.4H153.785ZM171.409 30.02C169.463 30.3933 166.969 30.58 163.929 30.58H162.049V23.1H167.549V20.14H162.029V18.28H169.929V24.96H164.389V28.66C167.083 28.66 169.343 28.4867 171.169 28.14L171.409 30.02ZM176.129 34.58H173.809V25.32H171.109V23.36H173.809V16.76H176.129V34.58ZM199.668 25.54H197.088V34.58H194.768V16.76H197.088V23.6H199.668V25.54ZM192.408 18.58C192.235 24.3133 189.575 28.5733 184.428 31.36L183.008 29.6C184.915 28.72 186.495 27.44 187.748 25.76C189.001 24.08 189.708 22.3333 189.868 20.52H184.088V18.58H192.408ZM214.813 34.58H212.473V16.76H214.813V34.58ZM209.333 18.62C209.186 24.3 206.533 28.5467 201.373 31.36L199.933 29.6C201.853 28.72 203.439 27.4467 204.693 25.78C205.946 24.1 206.653 22.36 206.813 20.56H201.013V18.62H209.333Z" fill="white"/>
<path d="M229 17.9844L237.016 26L229 34.0156L227.594 32.6094L233.172 26.9844H220.984V25.0156H233.172L227.594 19.3906L229 17.9844Z" fill="white"/>
</svg>
