<svg width="358" height="55" viewBox="0 0 358 55" fill="none" xmlns="http://www.w3.org/2000/svg">
<rect width="358" height="55" rx="20" transform="matrix(1 0 0 -1 0 55)" fill="#6CAA06"/>
<path d="M156.56 29.16L155.24 30.88C154.4 30.44 153.54 29.7333 152.66 28.76C151.78 27.7867 151.213 26.88 150.96 26.04C150.733 26.9867 150.207 27.9733 149.38 29C148.567 30.0133 147.66 30.76 146.66 31.24L145.2 29.52C148.213 27.8667 149.72 25.1667 149.72 21.42V20.5H146.14V18.58H155.62V20.5H152.16V21.4C152.16 24.9733 153.627 27.56 156.56 29.16ZM160.34 34.58H158V24.88H155V22.9H158V16.76H160.34V34.58ZM176.685 30.98C176.685 32.0867 176.138 32.96 175.045 33.6C173.951 34.24 172.425 34.56 170.465 34.56C168.505 34.56 166.978 34.24 165.885 33.6C164.805 32.96 164.265 32.0867 164.265 30.98C164.265 29.86 164.805 28.9867 165.885 28.36C166.978 27.72 168.505 27.4 170.465 27.4C172.425 27.4 173.951 27.72 175.045 28.36C176.138 28.9867 176.685 29.86 176.685 30.98ZM162.745 19.92V18H172.125V19.92H168.745C168.838 21.1067 169.251 22.12 169.985 22.96C170.731 23.7867 171.631 24.3733 172.685 24.72L171.405 26.56C170.671 26.28 169.938 25.8267 169.205 25.2C168.471 24.56 167.918 23.8467 167.545 23.06C167.278 23.9 166.745 24.7 165.945 25.46C165.145 26.22 164.298 26.7533 163.405 27.06L162.025 25.24C163.291 24.7867 164.305 24.1 165.065 23.18C165.825 22.2467 166.238 21.16 166.305 19.92H162.745ZM178.985 22.94H176.445V27.18H174.085V16.76H176.445V21.02H178.985V22.94ZM170.465 29.28C169.251 29.28 168.305 29.4267 167.625 29.72C166.958 30.0133 166.625 30.4333 166.625 30.98C166.625 31.5267 166.958 31.9533 167.625 32.26C168.305 32.5533 169.251 32.7 170.465 32.7C171.691 32.7 172.638 32.5533 173.305 32.26C173.985 31.9533 174.325 31.5267 174.325 30.98C174.325 30.4333 173.991 30.0133 173.325 29.72C172.658 29.4267 171.705 29.28 170.465 29.28ZM189.669 22.86H179.329V21H189.669V22.86ZM181.829 19.76V17.92H187.329V19.76H181.829ZM193.349 16.76V23.98H195.829V25.92H193.349V34.58H190.989V16.76H193.349ZM180.209 27.32C180.209 26.2133 180.609 25.3 181.409 24.58C182.209 23.8467 183.243 23.48 184.509 23.48C185.789 23.48 186.823 23.84 187.609 24.56C188.409 25.28 188.809 26.2 188.809 27.32C188.809 28.4267 188.409 29.3467 187.609 30.08C186.809 30.8 185.776 31.16 184.509 31.16C183.229 31.16 182.189 30.8067 181.389 30.1C180.603 29.38 180.209 28.4533 180.209 27.32ZM182.489 27.32C182.489 27.8933 182.676 28.36 183.049 28.72C183.436 29.08 183.923 29.26 184.509 29.26C185.149 29.26 185.643 29.0867 185.989 28.74C186.349 28.38 186.529 27.9067 186.529 27.32C186.529 26.7333 186.336 26.26 185.949 25.9C185.576 25.54 185.096 25.36 184.509 25.36C183.923 25.36 183.436 25.54 183.049 25.9C182.676 26.26 182.489 26.7333 182.489 27.32ZM211.054 34.58H208.714V16.76H211.054V34.58ZM205.574 18.62C205.427 24.3 202.774 28.5467 197.614 31.36L196.174 29.6C198.094 28.72 199.681 27.4467 200.934 25.78C202.187 24.1 202.894 22.36 203.054 20.56H197.254V18.62H205.574Z" fill="white"/>
</svg>
