<svg width="167" height="39" viewBox="0 0 167 39" fill="none" xmlns="http://www.w3.org/2000/svg">
<rect width="167" height="39" rx="19.5" fill="white"/>
<path d="M60.108 25.264H58.316V18.08H57.164V24.608H55.404V11.264H57.164V16.592H58.316V11.008H60.108V25.264ZM54.012 21.568H48.316V12.48H50.172V15.76H52.156V12.464H54.012V21.568ZM52.156 20.096V17.2H50.172V20.096H52.156ZM73.3918 22.368C73.3918 23.2533 72.9598 23.9573 72.0958 24.48C71.2318 25.0027 70.0318 25.264 68.4958 25.264C66.9704 25.264 65.7811 25.0027 64.9278 24.48C64.0744 23.9573 63.6478 23.2533 63.6478 22.368C63.6478 21.472 64.0744 20.768 64.9278 20.256C65.7811 19.7333 66.9704 19.472 68.4958 19.472C70.0318 19.472 71.2318 19.7333 72.0958 20.256C72.9598 20.768 73.3918 21.472 73.3918 22.368ZM73.2958 19.28H71.4238V17.728H68.8158V16.304H71.4238V14.896H69.0078V13.424H71.4238V11.008H73.2958V19.28ZM70.6878 23.392C71.1998 23.1467 71.4558 22.8053 71.4558 22.368C71.4558 21.9307 71.1944 21.5893 70.6718 21.344C70.1598 21.088 69.4344 20.96 68.4958 20.96C67.5891 20.96 66.8798 21.088 66.3678 21.344C65.8558 21.5893 65.5998 21.9307 65.5998 22.368C65.5998 22.8053 65.8504 23.1467 66.3518 23.392C66.8638 23.6373 67.5784 23.76 68.4958 23.76C69.4451 23.76 70.1758 23.6373 70.6878 23.392ZM68.7998 11.936C68.6504 15.6373 66.5438 18.1227 62.4798 19.392L61.4878 17.888C62.8104 17.5893 63.9518 17.0613 64.9118 16.304C65.8718 15.5467 66.4744 14.608 66.7198 13.488H62.1758V11.936H68.7998ZM90.3986 11.856C90.3986 13.9147 90.2333 15.856 89.9026 17.68H91.7906V19.168H86.2546V25.264H84.3826V19.168H78.9106V17.68H82.0466C82.4093 16.208 82.5906 14.7573 82.5906 13.328H79.9186V11.856H84.4786C84.4786 13.552 84.26 15.4933 83.8226 17.68H88.0946C88.3826 16.4427 88.5266 14.992 88.5266 13.328H85.5346V11.856H90.3986ZM104.226 25.264H102.354V11.008H104.226V25.264ZM97.9704 20.144V13.808H94.9624V20.144H97.9704ZM99.8584 12.32V21.632H93.0904V12.32H99.8584ZM117.75 25.264H115.878V11.008H117.75V25.264ZM113.366 12.496C113.249 17.04 111.126 20.4373 106.998 22.688L105.846 21.28C107.382 20.576 108.651 19.5573 109.654 18.224C110.657 16.88 111.222 15.488 111.35 14.048H106.71V12.496H113.366Z" fill="#6CAA06"/>
</svg>
