<svg width="23" height="23" viewBox="0 0 23 23" fill="none" xmlns="http://www.w3.org/2000/svg">
<path d="M1.01899 7.7821C1.00823 7.24403 1.4486 6.79159 1.99936 6.79159L2.01496 6.79159L2.03062 6.79159L2.04631 6.79159L2.06205 6.79159L2.07784 6.79159L2.09367 6.79159L2.10954 6.79159L2.12546 6.79159L2.14141 6.79159L2.15742 6.79159L2.17346 6.79159L2.18955 6.79159L2.20568 6.79159L2.22185 6.79159L2.23807 6.79159L2.25433 6.79159L2.27063 6.79159L2.28697 6.79159L2.30335 6.79159L2.31978 6.79159L2.33624 6.79159L2.35275 6.79159L2.36929 6.79159L2.38588 6.79159L2.40251 6.79159L2.41918 6.79159L2.43588 6.79159L2.45263 6.79159L2.46942 6.79159L2.48624 6.79159L2.5031 6.79159L2.52001 6.79159L2.53695 6.79159L2.55393 6.79159L2.57095 6.79159L2.58801 6.79159L2.6051 6.79159L2.62224 6.79159L2.63941 6.79159L2.65661 6.79159L2.67386 6.79159L2.69114 6.79159L2.70846 6.79159L2.72581 6.79159L2.74321 6.79159L2.76063 6.79159L2.7781 6.79159L2.79559 6.79159L2.81313 6.79159L2.8307 6.79159L2.84831 6.79159L2.86595 6.79159L2.88362 6.79159L2.90133 6.79159L2.91907 6.79159L2.93685 6.79159L2.95467 6.79159L2.97251 6.79159L2.99039 6.79159L3.0083 6.79159L3.02625 6.79159L3.04423 6.79159L3.06224 6.79159L3.08029 6.79159L3.09837 6.79159L3.11648 6.79159L3.13462 6.79159L3.15279 6.79159L3.171 6.79159L3.18923 6.79159L3.2075 6.79159L3.2258 6.79159L3.24413 6.79159L3.26249 6.79159L3.28088 6.79159L3.2993 6.79159L3.31775 6.79159L3.33623 6.79159L3.35475 6.79159L3.37329 6.79159L3.39186 6.79159L3.41046 6.79159L3.42908 6.79159L3.44774 6.79159L3.46643 6.79159L3.48514 6.79159L3.50388 6.79159L3.52265 6.79159L3.54145 6.79159L3.56027 6.79159L3.57913 6.79159L3.59801 6.79159L3.61691 6.79159L3.63585 6.79159L3.65481 6.79159L3.67379 6.79159L3.69281 6.79159L3.71184 6.79159L3.73091 6.79159L3.75 6.79159L3.76911 6.79159L3.78825 6.79159L3.80742 6.79159L3.82661 6.79159L3.84582 6.79159L3.86506 6.79159L3.88433 6.79159L3.90362 6.79159L3.92293 6.79159L3.94226 6.79159L3.96162 6.79159L3.981 6.79159L4.00041 6.79159L4.01984 6.79159L4.03929 6.79159L4.05876 6.79159L4.07826 6.79159L4.09777 6.79159L4.11731 6.79159L4.13687 6.79159L4.15646 6.79159L4.17606 6.79159L4.19569 6.79159L4.21533 6.79159L4.235 6.79159L4.25469 6.79159L4.27439 6.79159L4.29412 6.79159L4.31387 6.79159L4.33364 6.79159L4.35342 6.79159L4.37323 6.79159L4.39305 6.79159L4.4129 6.79159L4.43276 6.79159L4.45264 6.79159L4.47254 6.79159L4.49246 6.79159L4.5124 6.79159L4.53235 6.79159L4.55233 6.79159L4.57231 6.79159L4.59232 6.79159L4.61234 6.79159L4.63238 6.79159L4.65244 6.79159L4.67251 6.79159L4.6926 6.79159L4.71271 6.79159L4.73283 6.79159L4.75297 6.79159L4.77312 6.79159L4.79329 6.79159L4.81347 6.79159L4.83367 6.79159L4.85388 6.79159L4.87411 6.79159L4.89435 6.79159L4.9146 6.79159L4.93487 6.79159L4.95515 6.79159L4.97545 6.79159L4.99576 6.79159L5.01608 6.79159L5.03642 6.79159L5.05677 6.79159L5.07713 6.79159L5.0975 6.79159L5.11788 6.79159L5.13828 6.79159L5.15869 6.79159L5.17911 6.79159L5.19954 6.79159L5.21999 6.79159L5.24044 6.79159L5.2609 6.79159L5.28138 6.79159L5.30186 6.79159L5.32236 6.79159L5.34287 6.79159L5.36338 6.79159L5.38391 6.79159L5.40444 6.79159L5.42498 6.79159L5.44554 6.79159L5.4661 6.79159L5.48667 6.79159L5.50725 6.79159L5.52783 6.79159L5.54843 6.79159L5.56903 6.79159L5.58964 6.79159L5.61026 6.79159L5.63088 6.79159L5.65152 6.79159L5.67215 6.79159L5.6928 6.79159L5.71345 6.79159L5.73411 6.79159L5.75477 6.79159L5.77544 6.79159L5.79612 6.79159L5.8168 6.79159L5.83749 6.79159L5.85818 6.79159L5.87888 6.79159L5.89958 6.79159L5.92028 6.79159L5.94099 6.79159L5.96171 6.79159L5.98243 6.79159L6.00315 6.79159L6.02387 6.79159L6.0446 6.79159L6.06533 6.79159L6.08607 6.79159L6.10681 6.79159L6.12755 6.79159L6.14829 6.79159L6.16903 6.79159L6.18978 6.79159L6.21053 6.79159L6.23128 6.79159L6.25203 6.79159L6.27278 6.79159L6.29353 6.79159L6.31429 6.79159L6.33504 6.79159L6.3558 6.79159L6.37655 6.79159L6.39731 6.79159L6.41807 6.79159L6.43882 6.79159L6.45958 6.79159L6.48033 6.79159L6.50108 6.79159L6.52183 6.79159L6.54258 6.79159L6.56333 6.79159L6.58408 6.79159L6.60482 6.79159L6.62557 6.79159L6.64631 6.79159L6.66704 6.79159L6.68778 6.79159L6.70851 6.79159L6.72924 6.79159L6.74997 6.79159L6.77069 6.79159L6.79141 6.79159L6.81212 6.79159L6.83283 6.79159L6.85354 6.79159L6.87424 6.79159L6.89494 6.79159L6.91563 6.79159L6.93632 6.79159L6.957 6.79159L6.97768 6.79159L6.99835 6.79159L7.01901 6.79159L7.03967 6.79159L7.06033 6.79159L7.08097 6.79159L7.10161 6.79159L7.12225 6.79159L7.14287 6.79159L7.16349 6.79159L7.1841 6.79159L7.20471 6.79159L7.2253 6.79159L7.24589 6.79159L7.26647 6.79159L7.28704 6.79159L7.3076 6.79159L7.32816 6.79159L7.3487 6.79159L7.36924 6.79159L7.38976 6.79159L7.41028 6.79159L7.43079 6.79159L7.45129 6.79159L7.47177 6.79159L7.49225 6.79159L7.51272 6.79159L7.53317 6.79159L7.55362 6.79159L7.57405 6.79159L7.59447 6.79159L7.61488 6.79159L7.63528 6.79159L7.65567 6.79159L7.67604 6.79159L7.69641 6.79159L7.71676 6.79159L7.73709 6.79159L7.75742 6.79159L7.77773 6.79159L7.79803 6.79159L7.81831 6.79159L7.83858 6.79159L7.85884 6.79159L7.87908 6.79159L7.89931 6.79159L7.91953 6.79159L7.93973 6.79159L7.95991 6.79159L7.98008 6.79159L8.00024 6.79159L8.02038 6.79159L8.0405 6.79159L8.06061 6.79159L8.0807 6.79159L8.10078 6.79159L8.12084 6.79159L8.14088 6.79159L8.1609 6.79159L8.18091 6.79159L8.20091 6.79159L8.22088 6.79159L8.24084 6.79159L8.26077 6.79159L8.2807 6.79159L8.3006 6.79159L8.32048 6.79159L8.34035 6.79159L8.3602 6.79159L8.38003 6.79159L8.39983 6.79159L8.41962 6.79159L8.4394 6.79159L8.45915 6.79159L8.47888 6.79159L8.49859 6.79159L8.51828 6.79159L8.53795 6.79159L8.5576 6.79159L8.57723 6.79159L8.59683 6.79159L8.61642 6.79159L8.63598 6.79159L8.65553 6.79159L8.67505 6.79159L8.69455 6.79159L8.71402 6.79159L8.73348 6.79159L8.75291 6.79159L8.77232 6.79159L8.7917 6.79159L8.81107 6.79159L8.8304 6.79159L8.84972 6.79159L8.86901 6.79159L8.88828 6.79159L8.90752 6.79159L8.92674 6.79159L8.94593 6.79159L8.9651 6.79159L8.98425 6.79159L9.00337 6.79159L9.02246 6.79159L9.04153 6.79159L9.06057 6.79159L9.07959 6.79159L9.09858 6.79159L9.11754 6.79159L9.13648 6.79159L9.15539 6.79159L9.17428 6.79159L9.19313 6.79159L9.21196 6.79159L9.23076 6.79159L9.24954 6.79159L9.26828 6.79159L9.287 6.79159L9.30569 6.79159L9.32435 6.79159L9.34299 6.79159L9.36159 6.79159L9.38016 6.79159L9.39871 6.79159L9.41723 6.79159L9.43571 6.79159L9.45417 6.79159L9.47259 6.79159L9.49099 6.79159L9.50935 6.79159L9.52769 6.79159L9.54599 6.79159L9.56427 6.79159L9.58251 6.79159L9.60072 6.79159L9.6189 6.79159L9.63704 6.79159L9.65516 6.79159L9.67324 6.79159L9.69129 6.79159L9.70931 6.79159L9.72729 6.79159L9.74524 6.79159L9.76316 6.79159L9.78105 6.79159L9.7989 6.79159L9.81672 6.79159L9.8345 6.79159L9.85225 6.79159L9.86996 6.79159L9.88765 6.79159L9.90529 6.79159L9.9229 6.79159L9.94048 6.79159L9.95802 6.79159L9.97552 6.79159L9.99299 6.79159L10.0104 6.79159L10.0278 6.79159L10.0452 6.79159L10.0625 6.79159L10.0798 6.79159L10.097 6.79159L10.1143 6.79159L10.1314 6.79159L10.1486 6.79159L10.1657 6.79159L10.1827 6.79159L10.1998 6.79159L10.2167 6.79159L10.2337 6.79159L10.2506 6.79159L10.2675 6.79159L10.2843 6.79159L10.3011 6.79159L10.3179 6.79159L10.3346 6.79159L10.3512 6.79159L10.3679 6.79159L10.3845 6.79159L10.401 6.79159L10.4175 6.79159L10.434 6.79159L10.4504 6.79159L10.4668 6.79159L10.4832 6.79159L10.4995 6.79159L10.5157 6.79159L10.532 6.79159L10.5481 6.79159L10.5643 6.79159L10.5804 6.79159L10.5964 6.79159L10.6124 6.79159L10.6284 6.79159L10.6443 6.79159L10.6602 6.79159L10.676 6.79159L10.6918 6.79159L10.7076 6.79159L10.7233 6.79159L10.7389 6.79159L10.7546 6.79159L10.7701 6.79159L10.7856 6.79159L10.8011 6.79159L10.8166 6.79159L10.8319 6.79159L10.8473 6.79159L10.8626 6.79159L10.8778 6.79159L10.893 6.79159L10.9082 6.79159L10.9233 6.79159L10.9384 6.79159L10.9534 6.79159L10.9683 6.79159L10.9833 6.79159L10.9981 6.79159L11.013 6.79159L11.0277 6.79159L11.0425 6.79159L11.0571 6.79159L11.0718 6.79159L11.0864 6.79159L11.1009 6.79159L11.1154 6.79159L11.1298 6.79159L11.1442 6.79159L11.1585 6.79159L11.1728 6.79159L11.187 6.79159L11.2012 6.79159L11.2153 6.79159L11.2294 6.79159L11.2434 6.79159L11.2574 6.79159L11.2713 6.79159L11.2852 6.79159L11.299 6.79159L11.3128 6.79159L11.3265 6.79159L11.3402 6.79159L11.3538 6.79159L11.3674 6.79159L11.3809 6.79159L11.3943 6.79159L11.4077 6.79159L11.4211 6.79159L11.4344 6.79159L11.4476 6.79159L11.4608 6.79159L11.4739 6.79159L11.487 6.79159L11.5 6.79159L11.513 6.79159L11.5261 6.79159L11.5392 6.79159L11.5524 6.79159L11.5656 6.79159L11.5789 6.79159L11.5923 6.79159L11.6057 6.79159L11.6191 6.79159L11.6326 6.79159L11.6462 6.79159L11.6598 6.79159L11.6735 6.79159L11.6872 6.79159L11.701 6.79159L11.7148 6.79159L11.7287 6.79159L11.7426 6.79159L11.7566 6.79159L11.7706 6.79159L11.7847 6.79159L11.7988 6.79159L11.813 6.79159L11.8272 6.79159L11.8415 6.79159L11.8558 6.79159L11.8702 6.79159L11.8846 6.79159L11.8991 6.79159L11.9137 6.79159L11.9282 6.79159L11.9429 6.79159L11.9575 6.79159L11.9723 6.79159L11.987 6.79159L12.0019 6.79159L12.0167 6.79159L12.0317 6.79159L12.0466 6.79159L12.0616 6.79159L12.0767 6.79159L12.0918 6.79159L12.107 6.79159L12.1222 6.79159L12.1374 6.79159L12.1527 6.79159L12.1681 6.79159L12.1834 6.79159L12.1989 6.79159L12.2144 6.79159L12.2299 6.79159L12.2455 6.79159L12.2611 6.79159L12.2767 6.79159L12.2924 6.79159L12.3082 6.79159L12.324 6.79159L12.3398 6.79159L12.3557 6.79159L12.3716 6.79159L12.3876 6.79159L12.4036 6.79159L12.4196 6.79159L12.4357 6.79159L12.4519 6.79159L12.468 6.79159L12.4843 6.79159L12.5005 6.79159L12.5168 6.79159L12.5332 6.79159L12.5496 6.79159L12.566 6.79159L12.5825 6.79159L12.599 6.79159L12.6155 6.79159L12.6321 6.79159L12.6488 6.79159L12.6654 6.79159L12.6822 6.79159L12.6989 6.79159L12.7157 6.79159L12.7325 6.79159L12.7494 6.79159L12.7663 6.79159L12.7833 6.79159L12.8002 6.79159L12.8173 6.79159L12.8343 6.79159L12.8514 6.79159L12.8686 6.79159L12.8857 6.79159L12.903 6.79159L12.9202 6.79159L12.9375 6.79159L12.9548 6.79159L12.9722 6.79159L12.9896 6.79159L13.007 6.79159L13.0245 6.79159L13.042 6.79159L13.0595 6.79159L13.0771 6.79159L13.0947 6.79159L13.1124 6.79159L13.13 6.79159L13.1478 6.79159L13.1655 6.79159L13.1833 6.79159L13.2011 6.79159L13.219 6.79159L13.2368 6.79159L13.2548 6.79159L13.2727 6.79159L13.2907 6.79159L13.3087 6.79159L13.3268 6.79159L13.3448 6.79159L13.363 6.79159L13.3811 6.79159L13.3993 6.79159L13.4175 6.79159L13.4357 6.79159L13.454 6.79159L13.4723 6.79159L13.4907 6.79159L13.509 6.79159L13.5274 6.79159L13.5458 6.79159L13.5643 6.79159L13.5828 6.79159L13.6013 6.79159L13.6198 6.79159L13.6384 6.79159L13.657 6.79159L13.6757 6.79159L13.6943 6.79159L13.713 6.79159L13.7317 6.79159L13.7505 6.79159L13.7692 6.79159L13.788 6.79159L13.8069 6.79159L13.8257 6.79159L13.8446 6.79159L13.8635 6.79159L13.8825 6.79159L13.9014 6.79159L13.9204 6.79159L13.9394 6.79159L13.9585 6.79159L13.9775 6.79159L13.9966 6.79159L14.0158 6.79159L14.0349 6.79159L14.0541 6.79159L14.0733 6.79159L14.0925 6.79159L14.1117 6.79159L14.131 6.79159L14.1503 6.79159L14.1696 6.79159L14.1889 6.79159L14.2083 6.79159L14.2277 6.79159L14.2471 6.79159L14.2665 6.79159L14.286 6.79159L14.3055 6.79159L14.325 6.79159L14.3445 6.79159L14.364 6.79159L14.3836 6.79159L14.4032 6.79159L14.4228 6.79159L14.4424 6.79159L14.4621 6.79159L14.4817 6.79159L14.5014 6.79159L14.5211 6.79159L14.5409 6.79159L14.5606 6.79159L14.5804 6.79159L14.6002 6.79159L14.62 6.79159L14.6398 6.79159L14.6597 6.79159L14.6795 6.79159L14.6994 6.79159L14.7193 6.79159L14.7392 6.79159L14.7592 6.79159L14.7791 6.79159L14.7991 6.79159L14.8191 6.79159L14.8391 6.79159L14.8591 6.79159L14.8792 6.79159L14.8992 6.79159L14.9193 6.79159L14.9394 6.79159L14.9595 6.79159L14.9796 6.79159L14.9998 6.79159L15.0199 6.79159L15.0401 6.79159L15.0603 6.79159L15.0805 6.79159L15.1007 6.79159L15.1209 6.79159L15.1412 6.79159L15.1614 6.79159L15.1817 6.79159L15.202 6.79159L15.2223 6.79159L15.2426 6.79159L15.2629 6.79159L15.2832 6.79159L15.3036 6.79159L15.324 6.79159L15.3443 6.79159L15.3647 6.79159L15.3851 6.79159L15.4055 6.79159L15.426 6.79159L15.4464 6.79159L15.4668 6.79159L15.4873 6.79159L15.5078 6.79159L15.5282 6.79159L15.5487 6.79159L15.5692 6.79159L15.5897 6.79159L15.6102 6.79159L15.6308 6.79159L15.6513 6.79159L15.6718 6.79159L15.6924 6.79159L15.713 6.79159L15.7335 6.79159L15.7541 6.79159L15.7747 6.79159L15.7953 6.79159L15.8159 6.79159L15.8365 6.79159L15.8571 6.79159L15.8778 6.79159L15.8984 6.79159L15.919 6.79159L15.9397 6.79159L15.9603 6.79159L15.981 6.79159L16.0017 6.79159L16.0223 6.79159L16.043 6.79159L16.0637 6.79159L16.0844 6.79159L16.1051 6.79159L16.1258 6.79159L16.1465 6.79159L16.1672 6.79159L16.1879 6.79159L16.2086 6.79159L16.2293 6.79159L16.25 6.79159L16.2708 6.79159L16.2915 6.79159L16.3122 6.79159L16.333 6.79159L16.3537 6.79159L16.3744 6.79159L16.3952 6.79159L16.4159 6.79159L16.4367 6.79159L16.4574 6.79159L16.4782 6.79159L16.4989 6.79159L16.5197 6.79159L16.5404 6.79159L16.5612 6.79159L16.5819 6.79159L16.6027 6.79159L16.6235 6.79159L16.6442 6.79159L16.665 6.79159L16.6857 6.79159L16.7065 6.79159L16.7272 6.79159L16.748 6.79159L16.7687 6.79159L16.7895 6.79159L16.8102 6.79159L16.831 6.79159L16.8517 6.79159L16.8725 6.79159L16.8932 6.79159L16.9139 6.79159L16.9347 6.79159L16.9554 6.79159L16.9761 6.79159L16.9969 6.79159L17.0176 6.79159L17.0383 6.79159L17.059 6.79159L17.0797 6.79159L17.1004 6.79159L17.1211 6.79159L17.1418 6.79159L17.1625 6.79159L17.1832 6.79159L17.2039 6.79159L17.2246 6.79159L17.2452 6.79159L17.2659 6.79159L17.2866 6.79159L17.3072 6.79159L17.3279 6.79159L17.3485 6.79159L17.3691 6.79159L17.3897 6.79159L17.4104 6.79159L17.431 6.79159L17.4516 6.79159L17.4722 6.79159L17.4928 6.79159L17.5133 6.79159L17.5339 6.79159L17.5545 6.79159L17.575 6.79159L17.5956 6.79159L17.6161 6.79159L17.6366 6.79159L17.6571 6.79159L17.6776 6.79159L17.6981 6.79159L17.7186 6.79159L17.7391 6.79159L17.7596 6.79159L17.78 6.79159L17.8005 6.79159L17.8209 6.79159L17.8413 6.79159L17.8617 6.79159L17.8821 6.79159L17.9025 6.79159L17.9229 6.79159L17.9432 6.79159L17.9636 6.79159L17.9839 6.79159L18.0042 6.79159L18.0246 6.79159L18.0449 6.79159L18.0651 6.79159L18.0854 6.79159L18.1057 6.79159L18.1259 6.79159L18.1461 6.79159L18.1663 6.79159L18.1865 6.79159L18.2067 6.79159L18.2269 6.79159L18.247 6.79159L18.2672 6.79159L18.2873 6.79159L18.3074 6.79159L18.3275 6.79159L18.3476 6.79159L18.3676 6.79159L18.3877 6.79159L18.4077 6.79159L18.4277 6.79159L18.4477 6.79159L18.4677 6.79159L18.4876 6.79159L18.5075 6.79159L18.5275 6.79159L18.5474 6.79159L18.5672 6.79159L18.5871 6.79159L18.607 6.79159L18.6268 6.79159L18.6466 6.79159L18.6664 6.79159L18.6861 6.79159L18.7059 6.79159L18.7256 6.79159L18.7453 6.79159L18.765 6.79159L18.7847 6.79159L18.8043 6.79159L18.8239 6.79159L18.8435 6.79159L18.8631 6.79159L18.8827 6.79159L18.9022 6.79159L18.9217 6.79159L18.9412 6.79159L18.9607 6.79159L18.9802 6.79159L18.9996 6.79159L19.019 6.79159L19.0384 6.79159L19.0577 6.79159L19.0771 6.79159L19.0964 6.79159L19.1157 6.79159L19.1349 6.79159L19.1542 6.79159L19.1734 6.79159L19.1926 6.79159L19.2118 6.79159L19.2309 6.79159L19.25 6.79159L19.2691 6.79159L19.2882 6.79159L19.3072 6.79159L19.3262 6.79159L19.3452 6.79159L19.3642 6.79159L19.3831 6.79159L19.402 6.79159L19.4209 6.79159L19.4397 6.79159L19.4586 6.79159L19.4774 6.79159L19.4961 6.79159L19.5149 6.79159L19.5336 6.79159L19.5523 6.79159L19.5709 6.79159L19.5895 6.79159L19.6081 6.79159L19.6267 6.79159L19.6453 6.79159L19.6638 6.79159L19.6823 6.79159L19.7007 6.79159L19.7191 6.79159L19.7375 6.79159L19.7559 6.79159L19.7742 6.79159L19.7925 6.79159L19.8108 6.79159L19.829 6.79159L19.8472 6.79159L19.8654 6.79159L19.8835 6.79159L19.9016 6.79159L19.9197 6.79159L19.9378 6.79159L19.9558 6.79159L19.9738 6.79159L19.9917 6.79159L20.0096 6.79159L20.0275 6.79159L20.0453 6.79159L20.0632 6.79159L20.0809 6.79159L20.0987 6.79159L20.1164 6.79159L20.1341 6.79159L20.1517 6.79159L20.1693 6.79159L20.1869 6.79159L20.2044 6.79159L20.2219 6.79159L20.2394 6.79159L20.2568 6.79159L20.2742 6.79159L20.2915 6.79159L20.3089 6.79159L20.3261 6.79159L20.3434 6.79159L20.3606 6.79159L20.3778 6.79159L20.3949 6.79159L20.412 6.79159L20.4291 6.79159L20.4461 6.79159L20.4631 6.79159L20.48 6.79159L20.4969 6.79159L20.5138 6.79159L20.5306 6.79159L20.5474 6.79159L20.5641 6.79159L20.5808 6.79159L20.5975 6.79159L20.6141 6.79159L20.6307 6.79159L20.6473 6.79159L20.6638 6.79159L20.6802 6.79159L20.6967 6.79159L20.713 6.79159L20.7294 6.79159L20.7457 6.79159L20.7619 6.79159L20.7781 6.79159L20.7943 6.79159L20.8105 6.79159L20.8265 6.79159L20.8426 6.79159L20.8586 6.79159L20.8746 6.79159L20.8905 6.79159L20.9063 6.79159L20.9222 6.79159L20.938 6.79159L20.9537 6.79159L20.9694 6.79159L20.985 6.79159L21.0006 6.79159C21.5509 6.79159 21.9927 7.24392 21.9829 7.78409C21.9189 11.3292 21.6742 13.9267 21.2375 15.8354C20.8013 17.7422 20.1928 18.8743 19.4667 19.5819C18.7517 20.2787 17.8163 20.6674 16.5015 20.872C15.1605 21.0807 13.5388 21.0833 11.5 21.0833C9.54921 21.0833 7.97325 21.0807 6.65184 20.8723C5.35633 20.668 4.40645 20.279 3.66787 19.5745C2.91999 18.8611 2.28387 17.7241 1.82193 15.8223C1.35918 13.9173 1.08982 11.323 1.01899 7.7821Z" stroke="#C4C4C4" stroke-width="2"/>
<path d="M7.66663 1H16.2083C17.3129 1 18.2083 1.89543 18.2083 3V7.70833" stroke="#C4C4C4" stroke-width="2"/>
<path d="M14.375 1H6.79167C5.6871 1 4.79167 1.89543 4.79167 3V7.70833" stroke="#C4C4C4" stroke-width="2"/>
<line x1="4.79163" y1="9.58325" x2="18.2083" y2="9.58325" stroke="#C4C4C4" stroke-width="2"/>
</svg>
