<svg width="167" height="39" viewBox="0 0 167 39" fill="none" xmlns="http://www.w3.org/2000/svg">
<rect width="167" height="39" rx="19.5" fill="#6CAA06"/>
<path d="M59.772 19.408H57.9V11.024H59.772V19.408ZM50.124 20.096H59.788V25.28H57.9V21.584H50.124V20.096ZM56.684 17.184L55.612 18.624C55.0253 18.4107 54.4173 18.0373 53.788 17.504C53.1693 16.96 52.7107 16.3787 52.412 15.76C52.2093 16.4533 51.7827 17.1093 51.132 17.728C50.492 18.336 49.82 18.7627 49.116 19.008L47.98 17.52C49.036 17.136 49.8733 16.544 50.492 15.744C51.1213 14.9333 51.436 13.9947 51.436 12.928V11.696H53.372V12.832C53.372 13.8773 53.6973 14.7893 54.348 15.568C54.9987 16.3467 55.7773 16.8853 56.684 17.184ZM73.1838 25.2H63.1518V21.552H70.8158V20.72H63.0558V19.248H66.9758V18.176H61.5038V16.768H74.3838V18.176H68.8478V19.248H72.6878V22.864H65.0078V23.68H73.1838V25.2ZM72.6718 15.824H63.2158V11.28H72.6718V15.824ZM70.7678 14.352V12.72H65.0878V14.352H70.7678ZM90.3986 11.856C90.3986 13.9147 90.2333 15.856 89.9026 17.68H91.7906V19.168H86.2546V25.264H84.3826V19.168H78.9106V17.68H82.0466C82.4093 16.208 82.5906 14.7573 82.5906 13.328H79.9186V11.856H84.4786C84.4786 13.552 84.26 15.4933 83.8226 17.68H88.0946C88.3826 16.4427 88.5266 14.992 88.5266 13.328H85.5346V11.856H90.3986ZM104.226 25.264H102.354V11.008H104.226V25.264ZM97.9704 20.144V13.808H94.9624V20.144H97.9704ZM99.8584 12.32V21.632H93.0904V12.32H99.8584ZM117.75 25.264H115.878V11.008H117.75V25.264ZM113.366 12.496C113.249 17.04 111.126 20.4373 106.998 22.688L105.846 21.28C107.382 20.576 108.651 19.5573 109.654 18.224C110.657 16.88 111.222 15.488 111.35 14.048H106.71V12.496H113.366Z" fill="white"/>
</svg>
