<svg width="18" height="18" viewBox="0 0 18 18" fill="none" xmlns="http://www.w3.org/2000/svg">
<g filter="url(#filter0_ii_2304_2143)">
<path fill-rule="evenodd" clip-rule="evenodd" d="M7.50255 7.97236C6.14498 8.78851 4.12786 8.60022 2.85484 7.63651C1.28791 6.45031 -0.718009 2.42664 0.256551 1.13929C1.1745 -0.0732751 5.99675 0.846358 7.56368 2.03257C7.99978 2.3627 8.34499 2.78952 8.59016 3.26792C8.83534 2.78952 9.18055 2.3627 9.61665 2.03257C11.1836 0.846358 16.0058 -0.0732751 16.9238 1.13929C17.8983 2.42664 15.8924 6.45031 14.3255 7.63651C13.083 8.57708 11.1318 8.77902 9.77669 8.02942V9.45591L14.689 9.45591C15.5263 9.45591 16.2116 10.1385 16.1572 10.9741C15.7366 17.4319 12.5092 17.4319 8.59017 17.4319C4.67116 17.4319 1.44374 17.4319 1.02315 10.9741C0.968734 10.1385 1.65401 9.45591 2.49133 9.45591H7.50255V7.97236Z" fill="#42650F"/>
</g>
<defs>
<filter id="filter0_ii_2304_2143" x="0" y="-0.331641" width="17.1803" height="18.7633" filterUnits="userSpaceOnUse" color-interpolation-filters="sRGB">
<feFlood flood-opacity="0" result="BackgroundImageFix"/>
<feBlend mode="normal" in="SourceGraphic" in2="BackgroundImageFix" result="shape"/>
<feColorMatrix in="SourceAlpha" type="matrix" values="0 0 0 0 0 0 0 0 0 0 0 0 0 0 0 0 0 0 127 0" result="hardAlpha"/>
<feOffset dy="1"/>
<feGaussianBlur stdDeviation="0.5"/>
<feComposite in2="hardAlpha" operator="arithmetic" k2="-1" k3="1"/>
<feColorMatrix type="matrix" values="0 0 0 0 0.937255 0 0 0 0 0.996078 0 0 0 0 0.788235 0 0 0 0.3 0"/>
<feBlend mode="normal" in2="shape" result="effect1_innerShadow_2304_2143"/>
<feColorMatrix in="SourceAlpha" type="matrix" values="0 0 0 0 0 0 0 0 0 0 0 0 0 0 0 0 0 0 127 0" result="hardAlpha"/>
<feOffset dy="-1"/>
<feGaussianBlur stdDeviation="0.45"/>
<feComposite in2="hardAlpha" operator="arithmetic" k2="-1" k3="1"/>
<feColorMatrix type="matrix" values="0 0 0 0 0 0 0 0 0 0 0 0 0 0 0 0 0 0 0.25 0"/>
<feBlend mode="normal" in2="effect1_innerShadow_2304_2143" result="effect2_innerShadow_2304_2143"/>
</filter>
</defs>
</svg>
