<svg width="24" height="24" viewBox="0 0 24 24" fill="none" xmlns="http://www.w3.org/2000/svg">
<path d="M12 13.0597C12.6075 13.0597 13.1 12.5672 13.1 11.9597C13.1 11.3522 12.6075 10.8597 12 10.8597C11.3925 10.8597 10.9 11.3522 10.9 11.9597C10.9 12.5672 11.3925 13.0597 12 13.0597Z" fill="#42650F"/>
<path fill-rule="evenodd" clip-rule="evenodd" d="M11 22.9103C5.39355 22.4051 1 17.6932 1 11.9552C1 6.21722 5.39355 1.50525 11 1H13C18.6064 1.50525 23 6.21722 23 11.9552C23 17.6932 18.6064 22.4051 13 22.9103H11ZM11 21.4032V18.9552C11 18.4029 11.4478 17.9552 12 17.9552C12.5522 17.9552 13 18.4029 13 18.9552V21.4032C17.448 20.9379 20.9827 17.4032 21.448 12.9552H19C18.4478 12.9552 18 12.5075 18 11.9552C18 11.4029 18.4478 10.9552 19 10.9552H21.448C20.9827 6.5072 17.448 2.97253 13 2.5072V4.9552C13 5.50745 12.5522 5.9552 12 5.9552C11.4478 5.9552 11 5.50745 11 4.9552V2.5072C6.552 2.97253 3.01733 6.5072 2.552 10.9552H5C5.55225 10.9552 6 11.4029 6 11.9552C6 12.5075 5.55225 12.9552 5 12.9552H2.552C3.01733 17.4033 6.552 20.9379 11 21.4032Z" fill="#42650F"/>
<path d="M12 13.0597C12.6075 13.0597 13.1 12.5672 13.1 11.9597C13.1 11.3522 12.6075 10.8597 12 10.8597C11.3925 10.8597 10.9 11.3522 10.9 11.9597C10.9 12.5672 11.3925 13.0597 12 13.0597Z" stroke="#42650F"/>
<path fill-rule="evenodd" clip-rule="evenodd" d="M11 22.9103C5.39355 22.4051 1 17.6932 1 11.9552C1 6.21722 5.39355 1.50525 11 1H13C18.6064 1.50525 23 6.21722 23 11.9552C23 17.6932 18.6064 22.4051 13 22.9103H11ZM11 21.4032V18.9552C11 18.4029 11.4478 17.9552 12 17.9552C12.5522 17.9552 13 18.4029 13 18.9552V21.4032C17.448 20.9379 20.9827 17.4032 21.448 12.9552H19C18.4478 12.9552 18 12.5075 18 11.9552C18 11.4029 18.4478 10.9552 19 10.9552H21.448C20.9827 6.5072 17.448 2.97253 13 2.5072V4.9552C13 5.50745 12.5522 5.9552 12 5.9552C11.4478 5.9552 11 5.50745 11 4.9552V2.5072C6.552 2.97253 3.01733 6.5072 2.552 10.9552H5C5.55225 10.9552 6 11.4029 6 11.9552C6 12.5075 5.55225 12.9552 5 12.9552H2.552C3.01733 17.4033 6.552 20.9379 11 21.4032Z" stroke="#42650F"/>
</svg>
