<svg width="11" height="15" viewBox="0 0 11 15" fill="none" xmlns="http://www.w3.org/2000/svg">
<path d="M5.68906 12.9C5.82656 12.8883 5.94413 12.8328 6.04175 12.7334C6.13937 12.634 6.18796 12.5145 6.1875 12.375C6.1875 12.2117 6.13594 12.0805 6.03281 11.9816C5.92969 11.8827 5.79792 11.8388 5.6375 11.85C5.16771 11.885 4.66927 11.7539 4.14219 11.4566C3.6151 11.1593 3.28281 10.6196 3.14531 9.8375C3.1224 9.70917 3.06235 9.60417 2.96519 9.5225C2.86802 9.44083 2.75619 9.4 2.62969 9.4C2.46927 9.4 2.3375 9.46137 2.23438 9.5841C2.13125 9.70683 2.09687 9.84963 2.13125 10.0125C2.32604 11.0742 2.78438 11.8325 3.50625 12.2875C4.22813 12.7425 4.95573 12.9467 5.68906 12.9ZM5.5 15C3.93021 15 2.62121 14.4517 1.573 13.355C0.524792 12.2583 0.000458333 10.8933 0 9.26C0 8.09333 0.455583 6.8247 1.36675 5.4541C2.27792 4.0835 3.65567 2.5988 5.5 1C7.34479 2.59833 8.72277 4.08303 9.63394 5.4541C10.5451 6.82517 11.0005 8.0938 11 9.26C11 10.8933 10.4759 12.2583 9.42769 13.355C8.37948 14.4517 7.07025 15 5.5 15Z" fill="#52810A"/>
</svg>
