<svg width="63" height="40" viewBox="0 0 63 40" fill="none" xmlns="http://www.w3.org/2000/svg">
<rect width="63" height="40" rx="20" fill="#D9D9D9"/>
<path fill-rule="evenodd" clip-rule="evenodd" d="M29.6917 9.64394C28.9944 9.26848 28.1511 9.28724 27.4712 9.69334C26.7913 10.0994 26.375 10.8331 26.375 11.625V27.375C26.375 28.1669 26.7913 28.9006 27.4712 29.3067C28.1511 29.7128 28.9944 29.7315 29.6917 29.3561L44.3167 21.4811C45.0455 21.0886 45.5 20.3277 45.5 19.5C45.5 18.6723 45.0455 17.9114 44.3167 17.5189L29.6917 9.64394ZM28.625 27.375V21.75L36.5 19.5L28.625 17.25V11.625L43.25 19.5L28.625 27.375Z" fill="white"/>
</svg>
